<svg version="1.1" viewBox="0.0 0.0 1280.0 720.0" fill="none" stroke="none" stroke-linecap="square" stroke-miterlimit="10" xmlns:xlink="http://www.w3.org/1999/xlink" xmlns="http://www.w3.org/2000/svg"><clipPath id="p1.0"><path d="m0 0l1280.0 0l0 720.0l-1280.0 0l0 -720.0z" clip-rule="nonzero"/></clipPath><g clip-path="url(#p1.0)"><path fill="#ffffff" d="m0 0l1280.0 0l0 720.0l-1280.0 0z" fill-rule="evenodd"/><path fill="#000000" fill-opacity="0.0" d="m262.78793 150.303l115.39392 0l0 106.63127l-115.39392 0z" fill-rule="evenodd"/><path fill="#c00000" d="m309.56918 195.353q0 3.796875 -1.25 6.84375q-1.25 3.046875 -3.578125 5.203125q-2.328125 2.140625 -5.703125 3.3125q-3.375 1.171875 -8.0625 1.171875l-5.75 0l0 18.203125q0 0.3125 -0.171875 0.546875q-0.171875 0.234375 -0.546875 0.375q-0.375 0.140625 -1.015625 0.234375q-0.640625 0.09375 -1.625 0.09375q-0.96875 0 -1.625 -0.09375q-0.640625 -0.09375 -1.03125 -0.234375q-0.390625 -0.140625 -0.546875 -0.375q-0.15625 -0.234375 -0.15625 -0.546875l0 -46.640625q0 -1.5625 0.8125 -2.21875q0.828125 -0.671875 1.84375 -0.671875l10.828125 0q1.640625 0 3.140625 0.140625q1.5 0.125 3.546875 0.578125q2.0625 0.453125 4.1875 1.6875q2.125 1.21875 3.609375 3.015625q1.484375 1.796875 2.28125 4.171875q0.8125 2.359375 0.8125 5.203125zm-7.078125 0.546875q0 -3.078125 -1.15625 -5.140625q-1.140625 -2.078125 -2.84375 -3.09375q-1.703125 -1.015625 -3.515625 -1.28125q-1.8125 -0.28125 -3.53125 -0.28125l-6.21875 0l0 20.265625l6.0625 0q3.046875 0 5.046875 -0.78125q2.015625 -0.78125 3.375 -2.15625q1.375 -1.390625 2.078125 -3.328125q0.703125 -1.9375 0.703125 -4.203125z" fill-rule="nonzero"/><path fill="#000000" fill-opacity="0.0" d="m345.69702 201.66142l115.39389 0l0 106.63127l-115.39389 0z" fill-rule="evenodd"/><path fill="#c00000" d="m399.27515 280.0708q0.3125 0.859375 0.328125 1.390625q0.015625 0.53125 -0.296875 0.8125q-0.3125 0.265625 -1.03125 0.34375q-0.71875 0.078125 -1.9375 0.078125q-1.203125 0 -1.9375 -0.0625q-0.71875 -0.046875 -1.09375 -0.1875q-0.359375 -0.140625 -0.546875 -0.375q-0.171875 -0.234375 -0.328125 -0.59375l-4.328125 -12.296875l-21.015625 0l-4.140625 12.140625q-0.125 0.359375 -0.328125 0.609375q-0.1875 0.25 -0.5625 0.4375q-0.359375 0.171875 -1.046875 0.25q-0.6875 0.078125 -1.78125 0.078125q-1.125 0 -1.859375 -0.09375q-0.71875 -0.09375 -1.015625 -0.375q-0.28125 -0.28125 -0.265625 -0.796875q0.015625 -0.53125 0.328125 -1.390625l16.953125 -46.95314q0.15625 -0.4375 0.40625 -0.703125q0.265625 -0.28125 0.75 -0.4375q0.484375 -0.15625 1.25 -0.203125q0.765625 -0.0625 1.9375 -0.0625q1.25 0 2.0625 0.0625q0.828125 0.046875 1.328125 0.203125q0.515625 0.15625 0.78125 0.453125q0.28125 0.296875 0.4375 0.71875l16.953125 46.95314zm-21.765625 -41.437515l-0.03125 0l-8.71875 25.187515l17.578125 0l-8.828125 -25.187515z" fill-rule="nonzero"/><path fill="#000000" fill-opacity="0.0" d="m530.8491 315.20462l115.39392 0l0 106.63129l-115.39392 0z" fill-rule="evenodd"/><path fill="#c00000" d="m584.42725 393.61398q0.3125 0.859375 0.328125 1.390625q0.015625 0.53125 -0.296875 0.8125q-0.3125 0.265625 -1.03125 0.34375q-0.71875 0.078125 -1.9375 0.078125q-1.203125 0 -1.9375 -0.0625q-0.71875 -0.046875 -1.09375 -0.1875q-0.359375 -0.140625 -0.546875 -0.375q-0.171875 -0.234375 -0.328125 -0.59375l-4.328125 -12.296875l-21.015625 0l-4.140625 12.140625q-0.125 0.359375 -0.328125 0.609375q-0.1875 0.25 -0.5625 0.4375q-0.359375 0.171875 -1.046875 0.25q-0.6875 0.078125 -1.78125 0.078125q-1.125 0 -1.859375 -0.09375q-0.71875 -0.09375 -1.015625 -0.375q-0.28125 -0.28125 -0.265625 -0.796875q0.015625 -0.53125 0.328125 -1.390625l16.953125 -46.953125q0.15625 -0.4375 0.40625 -0.703125q0.265625 -0.28125 0.75 -0.4375q0.484375 -0.15625 1.25 -0.203125q0.765625 -0.0625 1.9375 -0.0625q1.25 0 2.0625 0.0625q0.828125 0.046875 1.328125 0.203125q0.515625 0.15625 0.78125 0.453125q0.28125 0.296875 0.4375 0.71875l16.953125 46.953125zm-21.765625 -41.4375l-0.03125 0l-8.71875 25.1875l17.578125 0l-8.828125 -25.1875z" fill-rule="nonzero"/><path fill="#000000" fill-opacity="0.0" d="m622.18195 315.2047l122.54529 0l0 106.63129l-122.54529 0z" fill-rule="evenodd"/><path fill="#c00000" d="m671.61945 394.9891q0 0.3125 -0.125 0.546875q-0.109375 0.234375 -0.5 0.390625q-0.390625 0.15625 -1.09375 0.234375q-0.703125 0.078125 -1.875 0.078125q-1.015625 0 -1.671875 -0.078125q-0.640625 -0.078125 -1.03125 -0.25q-0.390625 -0.1875 -0.609375 -0.5q-0.203125 -0.3125 -0.359375 -0.78125l-4.65625 -11.90625q-0.8125 -2.03125 -1.703125 -3.734375q-0.875 -1.703125 -2.09375 -2.921875q-1.203125 -1.234375 -2.84375 -1.921875q-1.640625 -0.6875 -3.9375 -0.6875l-4.5 0l0 21.53125q0 0.3125 -0.171875 0.546875q-0.171875 0.234375 -0.546875 0.375q-0.375 0.140625 -1.015625 0.234375q-0.640625 0.09375 -1.625 0.09375q-0.96875 0 -1.625 -0.09375q-0.640625 -0.09375 -1.03125 -0.234375q-0.390625 -0.140625 -0.546875 -0.375q-0.15625 -0.234375 -0.15625 -0.546875l0 -46.796875q0 -1.53125 0.796875 -2.125q0.8125 -0.609375 1.703125 -0.609375l10.75 0q1.90625 0 3.171875 0.09375q1.28125 0.09375 2.296875 0.21875q2.921875 0.5 5.171875 1.59375q2.25 1.09375 3.765625 2.78125q1.53125 1.671875 2.28125 3.84375q0.765625 2.171875 0.765625 4.78125q0 2.546875 -0.6875 4.5625q-0.671875 2.0 -1.96875 3.546875q-1.28125 1.546875 -3.078125 2.6875q-1.796875 1.125 -4.03125 1.90625q1.25 0.546875 2.265625 1.390625q1.015625 0.828125 1.890625 2.0q0.890625 1.171875 1.671875 2.703125q0.78125 1.515625 1.5625 3.4375l4.53125 11.125q0.546875 1.40625 0.703125 1.984375q0.15625 0.5625 0.15625 0.875zm-10.125 -35.515625q0 -2.96875 -1.328125 -5.015625q-1.328125 -2.046875 -4.453125 -2.953125q-0.96875 -0.265625 -2.203125 -0.375q-1.234375 -0.125 -3.21875 -0.125l-5.671875 0l0 17.03125l6.5625 0q2.65625 0 4.59375 -0.640625q1.9375 -0.65625 3.21875 -1.796875q1.296875 -1.15625 1.890625 -2.71875q0.609375 -1.5625 0.609375 -3.40625z" fill-rule="nonzero"/><path fill="#000000" fill-opacity="0.0" d="m707.1526 312.37796l115.39386 0l0 106.63129l-115.39386 0z" fill-rule="evenodd"/><path fill="#c00000" d="m754.55884 345.5217q0 0.734375 -0.078125 1.28125q-0.078125 0.546875 -0.265625 0.890625q-0.171875 0.328125 -0.421875 0.484375q-0.25 0.15625 -0.5625 0.15625l-14.21875 0l0 43.828125q0 0.3125 -0.15625 0.546875q-0.15625 0.234375 -0.546875 0.375q-0.390625 0.140625 -1.046875 0.234375q-0.640625 0.09375 -1.609375 0.09375q-0.9375 0 -1.609375 -0.09375q-0.65625 -0.09375 -1.046875 -0.234375q-0.390625 -0.140625 -0.546875 -0.375q-0.15625 -0.234375 -0.15625 -0.546875l0 -43.828125l-14.21875 0q-0.3125 0 -0.578125 -0.15625q-0.25 -0.15625 -0.40625 -0.484375q-0.15625 -0.34375 -0.25 -0.890625q-0.09375 -0.546875 -0.09375 -1.28125q0 -0.75 0.09375 -1.3125q0.09375 -0.5625 0.25 -0.90625q0.15625 -0.359375 0.40625 -0.515625q0.265625 -0.15625 0.578125 -0.15625l35.15625 0q0.3125 0 0.5625 0.15625q0.25 0.15625 0.421875 0.515625q0.1875 0.34375 0.265625 0.90625q0.078125 0.5625 0.078125 1.3125z" fill-rule="nonzero"/><path fill="#000000" fill-opacity="0.0" d="m798.18256 260.4757l115.39392 0l0 106.63129l-115.39392 0z" fill-rule="evenodd"/><path fill="#c00000" d="m842.0263 338.49445q0 0.703125 -0.078125 1.234375q-0.078125 0.53125 -0.28125 0.890625q-0.1875 0.34375 -0.4375 0.5q-0.25 0.15625 -0.5625 0.15625l-24.265625 0q-0.890625 0 -1.703125 -0.609375q-0.796875 -0.609375 -0.796875 -2.125l0 -45.078125q0 -1.53125 0.796875 -2.125q0.8125 -0.609375 1.703125 -0.609375l23.984375 0q0.3125 0 0.5625 0.15625q0.265625 0.15625 0.421875 0.515625q0.15625 0.34375 0.25 0.875q0.09375 0.515625 0.09375 1.296875q0 0.703125 -0.09375 1.234375q-0.09375 0.53125 -0.25 0.859375q-0.15625 0.328125 -0.421875 0.484375q-0.25 0.15625 -0.5625 0.15625l-19.765625 0l0 15.859375l16.953125 0q0.3125 0 0.5625 0.1875q0.265625 0.171875 0.4375 0.484375q0.171875 0.3125 0.25 0.859375q0.078125 0.546875 0.078125 1.28125q0 0.703125 -0.078125 1.21875q-0.078125 0.5 -0.25 0.8125q-0.171875 0.3125 -0.4375 0.453125q-0.25 0.140625 -0.5625 0.140625l-16.953125 0l0 18.078125l20.046875 0q0.3125 0 0.5625 0.15625q0.25 0.15625 0.4375 0.5q0.203125 0.328125 0.28125 0.859375q0.078125 0.515625 0.078125 1.296875z" fill-rule="nonzero"/><path fill="#000000" fill-opacity="0.0" d="m885.94147 201.66132l115.39386 0l0 106.63129l-115.39386 0z" fill-rule="evenodd"/><path fill="#c00000" d="m928.81647 268.2738q0 3.5625 -1.3125 6.34375q-1.3125 2.765625 -3.640625 4.703125q-2.3125 1.921875 -5.46875 2.90625q-3.140625 0.984375 -6.765625 0.984375q-2.546875 0 -4.71875 -0.4375q-2.15625 -0.4375 -3.859375 -1.0625q-1.703125 -0.625 -2.859375 -1.28125q-1.140625 -0.671875 -1.59375 -1.140625q-0.453125 -0.46875 -0.671875 -1.1875q-0.203125 -0.71875 -0.203125 -1.9375q0 -0.859375 0.078125 -1.421875q0.078125 -0.5625 0.234375 -0.90625q0.15625 -0.359375 0.390625 -0.5q0.234375 -0.140625 0.546875 -0.140625q0.546875 0 1.53125 0.671875q1.0 0.65625 2.5625 1.4375q1.5625 0.78125 3.765625 1.46875q2.21875 0.6875 5.109375 0.6875q2.1875 0 4.0 -0.578125q1.8125 -0.59375 3.125 -1.671875q1.3125 -1.078125 2.015625 -2.640625q0.703125 -1.5625 0.703125 -3.546875q0 -2.15625 -0.984375 -3.671875q-0.96875 -1.53125 -2.578125 -2.671875q-1.59375 -1.15625 -3.65625 -2.109375q-2.046875 -0.96875 -4.203125 -1.953125q-2.140625 -1.0 -4.171875 -2.203125q-2.03125 -1.21875 -3.640625 -2.859375q-1.59375 -1.640625 -2.59375 -3.84375q-0.984375 -2.21875 -0.984375 -5.296875q0 -3.171875 1.140625 -5.640625q1.15625 -2.484375 3.203125 -4.15625q2.0625 -1.6875 4.890625 -2.5625q2.828125 -0.890625 6.109375 -0.890625q1.6875 0 3.375 0.296875q1.703125 0.296875 3.203125 0.78125q1.515625 0.484375 2.6875 1.09375q1.171875 0.609375 1.53125 0.984375q0.375 0.359375 0.484375 0.578125q0.125 0.21875 0.203125 0.546875q0.078125 0.328125 0.109375 0.796875q0.046875 0.46875 0.046875 1.21875q0 0.703125 -0.0625 1.25q-0.046875 0.546875 -0.171875 0.921875q-0.109375 0.359375 -0.328125 0.546875q-0.21875 0.171875 -0.484375 0.171875q-0.4375 0 -1.359375 -0.546875q-0.90625 -0.546875 -2.234375 -1.234375q-1.328125 -0.6875 -3.15625 -1.25q-1.8125 -0.5625 -4.078125 -0.5625q-2.109375 0 -3.671875 0.5625q-1.5625 0.5625 -2.578125 1.5q-1.015625 0.9375 -1.53125 2.234375q-0.5 1.28125 -0.5 2.734375q0 2.109375 0.96875 3.640625q0.984375 1.515625 2.609375 2.6875q1.625 1.171875 3.6875 2.15625q2.078125 0.96875 4.21875 1.96875q2.15625 0.984375 4.21875 2.1875q2.078125 1.1875 3.6875 2.8125q1.625 1.609375 2.625 3.828125q1.0 2.203125 1.0 5.203125z" fill-rule="nonzero"/><path fill="#000000" fill-opacity="0.0" d="m445.57574 260.8485l115.39392 0l0 106.63129l-115.39392 0z" fill-rule="evenodd"/><path fill="#c00000" d="m490.357 338.836q0 0.734375 -0.078125 1.265625q-0.078125 0.53125 -0.25 0.890625q-0.171875 0.34375 -0.4375 0.5q-0.25 0.15625 -0.59375 0.15625l-29.84375 0q-1.015625 0 -1.640625 -0.625q-0.625 -0.625 -0.625 -2.0l0 -1.4375q0 -0.515625 0.046875 -0.9375q0.0625 -0.4375 0.25 -0.921875q0.203125 -0.484375 0.546875 -1.09375q0.359375 -0.609375 0.875 -1.421875l23.3125 -36.484375l-23.046875 0q-0.390625 0 -0.671875 -0.15625q-0.265625 -0.15625 -0.4375 -0.484375q-0.171875 -0.34375 -0.25 -0.859375q-0.078125 -0.53125 -0.078125 -1.234375q0 -0.78125 0.078125 -1.328125q0.078125 -0.546875 0.25 -0.890625q0.171875 -0.359375 0.4375 -0.515625q0.28125 -0.15625 0.671875 -0.15625l28.125 0q1.0625 0 1.65625 0.609375q0.609375 0.59375 0.609375 1.84375l0 1.53125q0 0.625 -0.078125 1.109375q-0.078125 0.484375 -0.28125 1.0q-0.1875 0.5 -0.515625 1.09375q-0.328125 0.578125 -0.875 1.359375l-23.203125 36.328125l24.6875 0q0.65625 0 1.0 0.671875q0.359375 0.65625 0.359375 2.1875z" fill-rule="nonzero"/><path fill="#000000" fill-opacity="0.0" d="m117.333336 457.21207l115.3939 0l0 106.631256l-115.3939 0z" fill-rule="evenodd"/><path fill="#c00000" d="m166.3802 523.5121q0 2.390625 -0.609375 4.40625q-0.609375 2.0 -1.703125 3.609375q-1.09375 1.59375 -2.640625 2.8125q-1.53125 1.203125 -3.46875 2.03125q-1.9375 0.8125 -4.140625 1.234375q-2.203125 0.40625 -5.0625 0.40625l-13.203125 0q-0.890625 0 -1.703125 -0.609375q-0.796875 -0.609375 -0.796875 -2.125l0 -45.078156q0 -1.53125 0.796875 -2.125q0.8125 -0.609375 1.703125 -0.609375l11.484375 0q4.53125 0 7.421875 0.859375q2.890625 0.859375 4.828125 2.5q1.9375 1.640625 2.90625 4.03125q0.984375 2.375 0.984375 5.375q0 1.796875 -0.4375 3.4375q-0.421875 1.640625 -1.265625 3.03125q-0.84375 1.390625 -2.109375 2.484375q-1.265625 1.09375 -2.90625 1.796875q2.0625 0.390625 3.859375 1.4219055q1.796875 1.03125 3.140625 2.640625q1.359375 1.59375 2.140625 3.75q0.78125 2.140625 0.78125 4.71875zm-10.125 -22.609406q0 -1.84375 -0.515625 -3.328125q-0.5 -1.484375 -1.59375 -2.515625q-1.09375 -1.03125 -2.859375 -1.578125q-1.75 -0.546875 -4.640625 -0.546875l-6.953125 0l0 16.359375l7.65625 0q2.625 0 4.21875 -0.671875q1.609375 -0.6875 2.65625 -1.84375q1.0625 -1.15625 1.546875 -2.6875q0.484375 -1.546875 0.484375 -3.1875zm3.046875 23.00003q0 -2.265625 -0.71875 -3.984375q-0.71875 -1.71875 -2.109375 -2.890625q-1.390625 -1.171875 -3.484375 -1.765625q-2.078125 -0.609375 -5.25 -0.609375l-8.046875 0l0 17.8125l9.765625 0q2.3125 0 4.03125 -0.546875q1.71875 -0.546875 3.015625 -1.625q1.3125 -1.078125 2.046875 -2.671875q0.75 -1.609375 0.75 -3.71875z" fill-rule="nonzero"/><path fill="#000000" fill-opacity="0.0" d="m187.15149 409.75012l115.39392 0l0 106.63129l-115.39392 0z" fill-rule="evenodd"/><path fill="#c00000" d="m240.88586 471.87823q0 4.609375 -1.359375 8.21875q-1.34375 3.609375 -3.84375 6.109375q-2.5 2.5 -6.09375 3.796875q-3.59375 1.296875 -8.15625 1.296875q-4.1875 0 -7.625 -1.21875q-3.4375 -1.21875 -5.90625 -3.578125q-2.453125 -2.359375 -3.78125 -5.90625q-1.328125 -3.5625 -1.328125 -8.21875l0 -31.359375q0 -0.3125 0.15625 -0.546875q0.15625 -0.234375 0.546875 -0.375q0.390625 -0.140625 1.015625 -0.234375q0.625 -0.09375 1.640625 -0.09375q0.9375 0 1.59375 0.09375q0.671875 0.09375 1.046875 0.234375q0.375 0.140625 0.53125 0.375q0.15625 0.234375 0.15625 0.546875l0 30.546875q0 3.515625 0.859375 6.140625q0.859375 2.609375 2.46875 4.34375q1.625 1.734375 3.90625 2.625q2.296875 0.875 5.140625 0.875q2.9375 0 5.21875 -0.859375q2.28125 -0.859375 3.859375 -2.578125q1.59375 -1.71875 2.421875 -4.25q0.84375 -2.546875 0.84375 -5.953125l0 -30.890625q0 -0.3125 0.15625 -0.546875q0.15625 -0.234375 0.546875 -0.375q0.390625 -0.140625 1.03125 -0.234375q0.65625 -0.09375 1.625 -0.09375q0.9375 0 1.578125 0.09375q0.65625 0.09375 1.015625 0.234375q0.375 0.140625 0.546875 0.375q0.1875 0.234375 0.1875 0.546875l0 30.859375z" fill-rule="nonzero"/><path fill="#000000" fill-opacity="0.0" d="m275.15182 374.3916l115.39389 0l0 106.63129l-115.39389 0z" fill-rule="evenodd"/><path fill="#c00000" d="m317.08932 452.25412q0 0.78125 -0.078125 1.3125q-0.078125 0.53125 -0.265625 0.90625q-0.171875 0.359375 -0.421875 0.546875q-0.25 0.171875 -0.609375 0.171875l-22.34375 0q-0.890625 0 -1.703125 -0.609375q-0.796875 -0.609375 -0.796875 -2.125l0 -46.796875q0 -0.3125 0.15625 -0.546875q0.15625 -0.234375 0.546875 -0.375q0.390625 -0.140625 1.046875 -0.234375q0.671875 -0.09375 1.609375 -0.09375q0.984375 0 1.625 0.09375q0.640625 0.09375 1.03125 0.234375q0.390625 0.140625 0.546875 0.375q0.15625 0.234375 0.15625 0.546875l0 43.703125l18.125 0q0.359375 0 0.609375 0.1875q0.25 0.171875 0.421875 0.5q0.1875 0.328125 0.265625 0.875q0.078125 0.546875 0.078125 1.328125z" fill-rule="nonzero"/><path fill="#000000" fill-opacity="0.0" d="m369.78876 312.37784l115.39389 0l0 106.63129l-115.39389 0z" fill-rule="evenodd"/><path fill="#c00000" d="m423.52313 374.50598q0 4.609375 -1.359375 8.21875q-1.34375 3.609375 -3.84375 6.109375q-2.5 2.5 -6.09375 3.796875q-3.59375 1.296875 -8.15625 1.296875q-4.1875 0 -7.625 -1.21875q-3.4375 -1.21875 -5.90625 -3.578125q-2.453125 -2.359375 -3.78125 -5.90625q-1.328125 -3.5625 -1.328125 -8.21875l0 -31.359375q0 -0.3125 0.15625 -0.546875q0.15625 -0.234375 0.546875 -0.375q0.390625 -0.140625 1.015625 -0.234375q0.625 -0.09375 1.640625 -0.09375q0.9375 0 1.59375 0.09375q0.671875 0.09375 1.046875 0.234375q0.375 0.140625 0.53125 0.375q0.15625 0.234375 0.15625 0.546875l0 30.546875q0 3.515625 0.859375 6.140625q0.859375 2.609375 2.46875 4.34375q1.625 1.734375 3.90625 2.625q2.296875 0.875 5.140625 0.875q2.9375 0 5.21875 -0.859375q2.28125 -0.859375 3.859375 -2.578125q1.59375 -1.71875 2.421875 -4.25q0.84375 -2.546875 0.84375 -5.953125l0 -30.890625q0 -0.3125 0.15625 -0.546875q0.15625 -0.234375 0.546875 -0.375q0.390625 -0.140625 1.03125 -0.234375q0.65625 -0.09375 1.625 -0.09375q0.9375 0 1.578125 0.09375q0.65625 0.09375 1.015625 0.234375q0.375 0.140625 0.546875 0.375q0.1875 0.234375 0.1875 0.546875l0 30.859375z" fill-rule="nonzero"/><path fill="#000000" fill-opacity="0.0" d="m457.7891 360.36334l115.39389 0l0 106.63129l-115.39389 0z" fill-rule="evenodd"/><path fill="#c00000" d="m470.38284 422.7571l7.15625 -0.625q0.5 4.296875 2.359375 7.0625q1.859375 2.75 5.765625 4.453125q3.90625 1.6875 8.78125 1.6875q4.34375 0 7.65625 -1.28125q3.328125 -1.296875 4.9375 -3.53125q1.625 -2.25 1.625 -4.90625q0 -2.703125 -1.5625 -4.703125q-1.5625 -2.015625 -5.15625 -3.390625q-2.296875 -0.890625 -10.1875 -2.78125q-7.890625 -1.90625 -11.0625 -3.578125q-4.09375 -2.15625 -6.109375 -5.328125q-2.015625 -3.1875 -2.015625 -7.140625q0 -4.328125 2.453125 -8.09375q2.46875 -3.78125 7.1875 -5.734375q4.734375 -1.953125 10.515625 -1.953125q6.375 0 11.234375 2.0625q4.859375 2.046875 7.46875 6.03125q2.6249695 3.984375 2.8280945 9.015625l-7.2655945 0.546875q-0.59375 -5.421875 -3.96875 -8.1875q-3.375 -2.78125 -9.984375 -2.78125q-6.875 0 -10.015625 2.515625q-3.140625 2.515625 -3.140625 6.078125q0 3.078125 2.21875 5.078125q2.1875 1.984375 11.421875 4.078125q9.25 2.09375 12.6875 3.65625q5.0 2.296875 7.3749695 5.84375q2.390625 3.53125 2.390625 8.140625q0 4.5625 -2.625 8.609375q-2.6093445 4.046875 -7.5155945 6.296875q-4.90625 2.25 -11.03125 2.25q-7.78125 0 -13.03125 -2.265625q-5.25 -2.28125 -8.25 -6.828125q-2.984375 -4.546875 -3.140625 -10.296875zm18.09375 24.03125l2.03125 -6.921875l5.234375 0l-1.28125 4.1875q3.3125 0.390625 4.984375 2.046875q1.6875 1.671875 1.6875 3.703125q0 2.921875 -2.8125 5.171875q-2.8125 2.25 -8.46875 2.25q-3.203125 0 -5.625 -0.46875l0.421875 -4.578125q2.5 0.15625 3.671875 0.15625q3.671875 0 5.15625 -1.015625q1.140625 -0.78125 1.140625 -1.90625q0 -0.703125 -0.453125 -1.25q-0.453125 -0.546875 -1.671875 -0.9375q-1.203125 -0.390625 -4.015625 -0.4375z" fill-rule="nonzero"/><path fill="#000000" fill-opacity="0.0" d="m536.7286 414.71948l115.39392 0l0 106.63129l-115.39392 0z" fill-rule="evenodd"/><path fill="#c00000" d="m607.4161 494.50385q0 0.3125 -0.15625 0.546875q-0.15625 0.234375 -0.546875 0.375q-0.390625 0.140625 -1.0 0.234375q-0.609375 0.09375 -1.578125 0.09375q-0.90625 0 -1.546875 -0.09375q-0.640625 -0.09375 -1.015625 -0.234375q-0.375 -0.140625 -0.53125 -0.375q-0.15625 -0.234375 -0.15625 -0.546875l0 -44.03125l-0.078125 0l-18.0 44.21875q-0.125 0.28125 -0.34375 0.484375q-0.203125 0.1875 -0.625 0.328125q-0.40625 0.140625 -0.96875 0.1875q-0.5625 0.0625 -1.34375 0.0625q-0.828125 0 -1.421875 -0.078125q-0.578125 -0.078125 -0.96875 -0.21875q-0.390625 -0.140625 -0.609375 -0.328125q-0.203125 -0.203125 -0.28125 -0.4375l-17.234375 -44.21875l-0.03125 0l0 44.03125q0 0.3125 -0.15625 0.546875q-0.15625 0.234375 -0.546875 0.375q-0.390625 0.140625 -1.015625 0.234375q-0.625 0.09375 -1.609375 0.09375q-0.9375 0 -1.5625 -0.09375q-0.625 -0.09375 -1.0 -0.234375q-0.359375 -0.140625 -0.5 -0.375q-0.140625 -0.234375 -0.140625 -0.546875l0 -46.484375q0 -1.640625 0.859375 -2.34375q0.859375 -0.703125 1.921875 -0.703125l4.0625 0q1.25 0 2.1875 0.234375q0.9375 0.234375 1.640625 0.75q0.703125 0.5 1.171875 1.28125q0.46875 0.78125 0.8125 1.828125l14.65625 36.609375l0.1875 0l15.234375 -36.484375q0.4375 -1.171875 0.9375 -1.984375q0.515625 -0.828125 1.109375 -1.3125q0.609375 -0.5 1.34375 -0.703125q0.75 -0.21875 1.734375 -0.21875l4.25 0q0.59375 0 1.109375 0.171875q0.53125 0.171875 0.90625 0.546875q0.375 0.375 0.609375 0.9375q0.234375 0.5625 0.234375 1.390625l0 46.484375z" fill-rule="nonzero"/><path fill="#000000" fill-opacity="0.0" d="m627.002 415.7599l115.39392 0l0 106.63129l-115.39392 0z" fill-rule="evenodd"/><path fill="#c00000" d="m680.58014 494.16925q0.3125 0.859375 0.328125 1.390625q0.015625 0.53125 -0.296875 0.8125q-0.3125 0.265625 -1.03125 0.34375q-0.71875 0.078125 -1.9375 0.078125q-1.203125 0 -1.9375 -0.0625q-0.71875 -0.046875 -1.09375 -0.1875q-0.359375 -0.140625 -0.546875 -0.375q-0.171875 -0.234375 -0.328125 -0.59375l-4.328125 -12.296875l-21.015625 0l-4.140625 12.140625q-0.125 0.359375 -0.328125 0.609375q-0.1875 0.25 -0.5625 0.4375q-0.359375 0.171875 -1.046875 0.25q-0.6875 0.078125 -1.78125 0.078125q-1.125 0 -1.859375 -0.09375q-0.71875 -0.09375 -1.015625 -0.375q-0.28125 -0.28125 -0.265625 -0.796875q0.015625 -0.53125 0.328125 -1.390625l16.953125 -46.953125q0.15625 -0.4375 0.40625 -0.703125q0.265625 -0.28125 0.75 -0.4375q0.484375 -0.15625 1.25 -0.203125q0.765625 -0.0625 1.9375 -0.0625q1.25 0 2.0625 0.0625q0.828125 0.046875 1.328125 0.203125q0.515625 0.15625 0.78125 0.453125q0.28125 0.296875 0.4375 0.71875l16.953125 46.953125zm-21.765625 -41.4375l-0.03125 0l-8.71875 25.1875l17.578125 0l-8.828125 -25.1875z" fill-rule="nonzero"/><path fill="#000000" fill-opacity="0.0" d="m710.18225 415.45102l115.39392 0l0 106.63132l-115.39392 0z" fill-rule="evenodd"/><path fill="#c00000" d="m752.11975 493.31354q0 0.78125 -0.078125 1.3125q-0.078125 0.53125 -0.265625 0.90625q-0.171875 0.359375 -0.421875 0.546875q-0.25 0.171875 -0.609375 0.171875l-22.34375 0q-0.890625 0 -1.703125 -0.609375q-0.796875 -0.609375 -0.796875 -2.125l0 -46.796875q0 -0.3125 0.15625 -0.546875q0.15625 -0.234375 0.546875 -0.375q0.390625 -0.140625 1.046875 -0.234375q0.671875 -0.09375 1.609375 -0.09375q0.984375 0 1.625 0.09375q0.640625 0.09375 1.03125 0.234375q0.390625 0.140625 0.546875 0.375q0.15625 0.234375 0.15625 0.546875l0 43.703125l18.125 0q0.359375 0 0.609375 0.1875q0.25 0.171875 0.421875 0.5q0.1875 0.328125 0.265625 0.875q0.078125 0.546875 0.078125 1.328125z" fill-rule="nonzero"/><path fill="#000000" fill-opacity="0.0" d="m774.9723 465.93985l115.39392 0l0 106.631256l-115.39392 0z" fill-rule="evenodd"/><path fill="#c00000" d="m828.5504 544.3492q0.3125 0.859375 0.328125 1.390625q0.015625 0.53125 -0.296875 0.8125q-0.3125 0.265625 -1.03125 0.34375q-0.71875 0.078125 -1.9375 0.078125q-1.203125 0 -1.9375 -0.0625q-0.71875 -0.046875 -1.09375 -0.1875q-0.359375 -0.140625 -0.546875 -0.375q-0.171875 -0.234375 -0.328125 -0.59375l-4.328125 -12.296875l-21.015625 0l-4.140625 12.140625q-0.125 0.359375 -0.328125 0.609375q-0.1875 0.25 -0.5625 0.4375q-0.359375 0.171875 -1.046875 0.25q-0.6875 0.078125 -1.78125 0.078125q-1.125 0 -1.859375 -0.09375q-0.71875 -0.09375 -1.015625 -0.375q-0.28125 -0.28125 -0.265625 -0.796875q0.015625 -0.53125 0.328125 -1.390625l16.953125 -46.953094q0.15625 -0.4375 0.40625 -0.703125q0.265625 -0.28125 0.75 -0.4375q0.484375 -0.15625 1.25 -0.203125q0.765625 -0.0625 1.9375 -0.0625q1.25 0 2.0625 0.0625q0.828125 0.046875 1.328125 0.203125q0.515625 0.15625 0.78125 0.453125q0.28125 0.296875 0.4375 0.71875l16.953125 46.953094zm-21.765625 -41.43747l-0.03125 0l-8.71875 25.18747l17.578125 0l-8.828125 -25.18747z" fill-rule="nonzero"/><path fill="#000000" fill-opacity="0.0" d="m955.15625 556.92755l115.39392 0l0 106.63129l-115.39392 0z" fill-rule="evenodd"/><path fill="#c00000" d="m977.59375 636.712q0 0.3125 -0.15625 0.546875q-0.15625 0.234375 -0.546875 0.375q-0.390625 0.140625 -1.03125 0.234375q-0.640625 0.09375 -1.625 0.09375q-0.9375 0 -1.609375 -0.09375q-0.65625 -0.09375 -1.046875 -0.234375q-0.390625 -0.140625 -0.546875 -0.375q-0.15625 -0.234375 -0.15625 -0.546875l0 -48.515625q0 -0.3125 0.171875 -0.546875q0.1875 -0.234375 0.59375 -0.375q0.40625 -0.140625 1.046875 -0.234375q0.65625 -0.09375 1.546875 -0.09375q0.984375 0 1.625 0.09375q0.640625 0.09375 1.03125 0.234375q0.390625 0.140625 0.546875 0.375q0.15625 0.234375 0.15625 0.546875l0 48.515625z" fill-rule="nonzero"/><path fill="#000000" fill-opacity="0.0" d="m865.24554 511.4337l115.39392 0l0 106.631256l-115.39392 0z" fill-rule="evenodd"/><path fill="#c00000" d="m914.68304 591.2181q0 0.3125 -0.125 0.546875q-0.109375 0.234375 -0.5 0.390625q-0.390625 0.15625 -1.09375 0.234375q-0.703125 0.078125 -1.875 0.078125q-1.015625 0 -1.671875 -0.078125q-0.640625 -0.078125 -1.03125 -0.25q-0.390625 -0.1875 -0.609375 -0.5q-0.203125 -0.3125 -0.359375 -0.78125l-4.65625 -11.90625q-0.8125 -2.03125 -1.703125 -3.734375q-0.875 -1.703125 -2.09375 -2.921875q-1.203125 -1.234375 -2.84375 -1.921875q-1.640625 -0.6875 -3.9375 -0.6875l-4.5 0l0 21.53125q0 0.3125 -0.171875 0.546875q-0.171875 0.234375 -0.546875 0.375q-0.375 0.140625 -1.015625 0.234375q-0.640625 0.09375 -1.625 0.09375q-0.96875 0 -1.625 -0.09375q-0.640625 -0.09375 -1.03125 -0.234375q-0.390625 -0.140625 -0.546875 -0.375q-0.15625 -0.234375 -0.15625 -0.546875l0 -46.796875q0 -1.53125 0.796875 -2.125q0.8125 -0.609375 1.703125 -0.609375l10.75 0q1.90625 0 3.171875 0.09375q1.28125 0.09375 2.296875 0.21875q2.921875 0.5 5.171875 1.59375q2.25 1.09375 3.765625 2.78125q1.53125 1.671875 2.28125 3.84375q0.765625 2.171875 0.765625 4.78125q0 2.546875 -0.6875 4.5625q-0.671875 2.0 -1.96875 3.546875q-1.28125 1.546875 -3.078125 2.6875q-1.796875 1.125 -4.03125 1.90625q1.25 0.546875 2.265625 1.390625q1.015625 0.828125 1.890625 2.0q0.890625 1.171875 1.671875 2.703125q0.78125 1.515625 1.5625 3.4375l4.53125 11.125q0.546875 1.40625 0.703125 1.984375q0.15625 0.5625 0.15625 0.875zm-10.125 -35.515625q0 -2.96875 -1.328125 -5.015625q-1.328125 -2.046875 -4.453125 -2.953125q-0.96875 -0.265625 -2.203125 -0.375q-1.234375 -0.125 -3.21875 -0.125l-5.671875 0l0 17.03125l6.5625 0q2.65625 0 4.59375 -0.640625q1.9375 -0.65625 3.21875 -1.796875q1.296875 -1.15625 1.890625 -2.71875q0.609375 -1.5625 0.609375 -3.40625z" fill-rule="nonzero"/><path fill="#000000" fill-opacity="0.0" d="m955.15607 136.56693l115.39398 0l0 106.63129l-115.39398 0z" fill-rule="evenodd"/><path fill="#c00000" d="m971.6248 217.36693l0 -57.265625l7.578125 0l0 57.265625l-7.578125 0zm-0.546875 -60.78125l0 -8.75l8.703125 0l0 8.75l-8.703125 0z" fill-rule="nonzero"/><path fill="#000000" fill-opacity="0.0" d="m463.57574 218.04706l0 0c46.3584 -40.34178 106.89911 -60.551865 168.30383 -56.184296c61.404785 4.367584 118.64368 32.955063 159.1247 79.47351l-174.7945 152.10883z" fill-rule="evenodd"/><path fill="#000000" fill-opacity="0.0" d="m463.57574 218.04706l0 0c46.3584 -40.34178 106.89911 -60.551865 168.30383 -56.184296c61.404785 4.367584 118.64368 32.955063 159.1247 79.47351" fill-rule="evenodd"/><path stroke="#ed7d31" stroke-width="8.0" stroke-miterlimit="800.0" stroke-linecap="butt" d="m463.57574 218.04706l0 0c46.3584 -40.34178 106.89911 -60.551865 168.30383 -56.184296c61.404785 4.367584 118.64368 32.955063 159.1247 79.47351" fill-rule="evenodd"/><path fill="#000000" fill-opacity="0.0" d="m752.3673 565.1532l0 0c-158.70807 75.4129 -337.6749 30.671692 -399.73364 -99.93225l287.36627 -136.54715z" fill-rule="evenodd"/><path fill="#000000" fill-opacity="0.0" d="m752.3673 565.1532l0 0c-158.70807 75.4129 -337.6749 30.671692 -399.73364 -99.93225" fill-rule="evenodd"/><path stroke="#ed7d31" stroke-width="8.0" stroke-miterlimit="800.0" stroke-linecap="butt" d="m752.3673 565.1532l0 0c-158.70807 75.4129 -337.6749 30.671692 -399.73364 -99.93225" fill-rule="evenodd"/></g></svg>