<?xml version="1.0" encoding="UTF-8" standalone="no"?>
<!-- Created with Inkscape (http://www.inkscape.org/) -->
<svg xmlns:dc="http://purl.org/dc/elements/1.1/" xmlns:cc="http://creativecommons.org/ns#" xmlns:rdf="http://www.w3.org/1999/02/22-rdf-syntax-ns#" xmlns:svg="http://www.w3.org/2000/svg" xmlns="http://www.w3.org/2000/svg" xmlns:xlink="http://www.w3.org/1999/xlink" version="1.1" width="784" height="501.99997" viewBox="0 0 221.26223 141.67555" id="svg2" xml:space="preserve" style="fill-rule:evenodd"><metadata id="metadata116"><rdf:RDF><cc:Work rdf:about=""><dc:format>image/svg+xml</dc:format><dc:type rdf:resource="http://purl.org/dc/dcmitype/StillImage"/><dc:title/></cc:Work></rdf:RDF></metadata>
 <defs id="defs4"><linearGradient id="linearGradient4445"><stop id="stop4447" style="stop-color:#ffffff;stop-opacity:0" offset="0"/><stop id="stop4453" style="stop-color:#ffffff;stop-opacity:1" offset="0.31438985"/><stop id="stop4449" style="stop-color:#ffffff;stop-opacity:0" offset="1"/></linearGradient><linearGradient id="linearGradient4305"><stop id="stop4307" style="stop-color:#ffffff;stop-opacity:0" offset="0"/><stop id="stop4309" style="stop-color:#ffffff;stop-opacity:0" offset="0.47454065"/><stop id="stop4311" style="stop-color:#ffffff;stop-opacity:1" offset="0.67188078"/><stop id="stop4315" style="stop-color:#ffffff;stop-opacity:0" offset="0.83046013"/><stop id="stop4313" style="stop-color:#ffffff;stop-opacity:0" offset="1"/></linearGradient><linearGradient id="linearGradient3893"><stop id="stop3895" style="stop-color:#ffffff;stop-opacity:0" offset="0"/><stop id="stop3903" style="stop-color:#ffffff;stop-opacity:0" offset="0.55726993"/><stop id="stop3901" style="stop-color:#ffffff;stop-opacity:1" offset="0.71981984"/><stop id="stop3905" style="stop-color:#ffffff;stop-opacity:0" offset="0.86493009"/><stop id="stop3897" style="stop-color:#ffffff;stop-opacity:0" offset="1"/></linearGradient><linearGradient id="linearGradient4066"><stop id="stop4068" style="stop-color:#2c59e0;stop-opacity:1" offset="0"/><stop id="stop4070" style="stop-color:#2a54d3;stop-opacity:1" offset="0.49999997"/><stop id="stop4072" style="stop-color:#2c59df;stop-opacity:0" offset="1"/></linearGradient><linearGradient id="linearGradient3911"><stop id="stop3913" style="stop-color:#12214d;stop-opacity:0" offset="0"/><stop id="stop3917" style="stop-color:#0f1e4c;stop-opacity:0" offset="0.75298065"/><stop id="stop3915" style="stop-color:#0f1e4c;stop-opacity:1" offset="1"/></linearGradient><linearGradient id="linearGradient3884"><stop id="stop3886" style="stop-color:#17285a;stop-opacity:0.99607843" offset="0"/><stop id="stop3888" style="stop-color:#0000ff;stop-opacity:0" offset="1"/></linearGradient><style type="text/css" id="style6"/><filter x="-0.22749411" y="-0.86219001" width="1.4549882" height="2.72438" color-interpolation-filters="sRGB" id="filter4014"><feGaussianBlur id="feGaussianBlur4016" stdDeviation="3.1803372"/></filter><filter color-interpolation-filters="sRGB" id="filter4316"><feGaussianBlur id="feGaussianBlur4318" stdDeviation="2.9941413"/></filter><clipPath id="clipPath4330"><path d="m -126.39732,55.666848 c 22.12636,0 41.333176,6.101295 50.939622,15.04066 -9.200286,9.43946 -28.854682,15.962715 -51.612352,15.962715 -22.2248,0 -41.49109,-6.221885 -50.94969,-15.305715 9.35748,-9.296275 28.95889,-15.69766 51.62242,-15.69766 z m -0.0385,-45.8256797 c 53.636036,0 97.132267,24.8226697 97.132267,60.8747197 0,36.052052 -43.496551,60.874812 -97.132267,60.874812 -53.63349,0 -97.12958,-24.82276 -97.12958,-60.874812 0,-36.05205 43.49641,-60.8747196 97.12958,-60.8747196 z" id="path4332" style="fill:#000000;fill-opacity:1;stroke-width:0.70555556;stroke-miterlimit:4;stroke-dasharray:none"/></clipPath><filter x="-0.09322764" y="-0.47753662" width="1.1864552" height="1.9550732" color-interpolation-filters="sRGB" id="filter4354"><feGaussianBlur id="feGaussianBlur4356" stdDeviation="3.009261"/></filter><clipPath id="clipPath4358"><path d="m -126.39732,55.666848 c 22.12636,0 41.333175,6.101295 50.939625,15.04066 l -0.449012,-46.789256 -105.300013,0 3.18698,47.446256 c 9.35748,-9.296275 28.95889,-15.69766 51.62242,-15.69766 z" id="path4360" style="fill:#000000;fill-opacity:1;stroke-width:0.70555556;stroke-miterlimit:4;stroke-dasharray:none"/></clipPath><radialGradient cx="109.46044" cy="63.940235" r="49.21402" fx="109.46044" fy="63.940235" id="radialGradient3899" xlink:href="#linearGradient3893" gradientUnits="userSpaceOnUse" gradientTransform="matrix(2.2266864,1.7018041e-8,0,1.207232,-134.9924,-5.7078988)"/><filter x="-0.1202976" y="-0.35734788" width="1.2405952" height="1.7146957" color-interpolation-filters="sRGB" id="filter3942"><feGaussianBlur id="feGaussianBlur3944" stdDeviation="2.3839191"/></filter><radialGradient cx="77.28347" cy="100.66904" r="50.044765" fx="77.28347" fy="100.66904" id="radialGradient4303" xlink:href="#linearGradient4305" gradientUnits="userSpaceOnUse" gradientTransform="matrix(7.0135862e-8,1.1699488,-2.0037912,1.2012288e-7,293.62543,-18.659977)"/><linearGradient x1="56.452034" y1="36.225609" x2="160.23648" y2="99.53524" id="linearGradient4451" xlink:href="#linearGradient4445" gradientUnits="userSpaceOnUse"/><linearGradient x1="-443.18094" y1="38.804565" x2="-454.5701" y2="109.71871" id="linearGradient4463" xlink:href="#linearGradient3884" gradientUnits="userSpaceOnUse" gradientTransform="translate(271.49778,-1.8571429e-6)"/><radialGradient cx="-25.026648" cy="0.97093433" r="97.130943" fx="-25.026648" fy="0.97093433" id="radialGradient4465" xlink:href="#linearGradient4066" gradientUnits="userSpaceOnUse" gradientTransform="matrix(1.3942279,0.37358225,-0.17595018,0.65665518,-90.618179,42.583555)"/><radialGradient cx="-161.18199" cy="65.074226" r="97.130943" fx="-161.18199" fy="65.074226" id="radialGradient4467" xlink:href="#linearGradient3911" gradientUnits="userSpaceOnUse" gradientTransform="matrix(1.781602,0,0,1.1978887,58.57705,-19.736601)"/><filter x="-0.21509296" y="-0.27143079" width="1.4301859" height="1.5428616" color-interpolation-filters="sRGB" id="filter3840"><feGaussianBlur stdDeviation="12.528372" id="feGaussianBlur3842"/></filter><clipPath id="clipPath4358-1"><path d="m -126.39732,55.666848 c 22.12636,0 41.333175,6.101295 50.939625,15.04066 l -0.449012,-46.789256 -105.300013,0 3.18698,47.446256 c 9.35748,-9.296275 28.95889,-15.69766 51.62242,-15.69766 z" id="path4360-7" style="fill:#000000;fill-opacity:1;stroke-width:0.70555556;stroke-miterlimit:4;stroke-dasharray:none"/></clipPath><filter x="-0.09322764" y="-0.47753662" width="1.1864552" height="1.9550732" color-interpolation-filters="sRGB" id="filter4354-4"><feGaussianBlur id="feGaussianBlur4356-0" stdDeviation="3.009261"/></filter><radialGradient cx="-25.026648" cy="0.97093433" r="97.130943" fx="-25.026648" fy="0.97093433" id="radialGradient4465-4" xlink:href="#linearGradient4066-8" gradientUnits="userSpaceOnUse" gradientTransform="matrix(1.3942279,0.37358225,-0.17595018,0.65665518,-90.618179,42.583555)"/><linearGradient id="linearGradient4066-8"><stop id="stop4068-8" style="stop-color:#2c59e0;stop-opacity:1" offset="0"/><stop id="stop4070-2" style="stop-color:#2a54d3;stop-opacity:1" offset="0.49999997"/><stop id="stop4072-4" style="stop-color:#2c59df;stop-opacity:0" offset="1"/></linearGradient><filter x="-0.53043282" y="-1.120417" width="2.0608656" height="3.240834" color-interpolation-filters="sRGB" id="filter3924"><feGaussianBlur id="feGaussianBlur3926" stdDeviation="22.459581"/></filter><filter x="-0.47377431" y="-0.81791312" width="1.9475486" height="2.6358263" color-interpolation-filters="sRGB" id="filter3858"><feGaussianBlur stdDeviation="20.060548" id="feGaussianBlur3860"/></filter><filter x="-0.44202736" y="-0.93368077" width="1.8840547" height="2.8673615" color-interpolation-filters="sRGB" id="filter3859"><feGaussianBlur id="feGaussianBlur3861" stdDeviation="5.2821605"/></filter><clipPath id="clipPath3079"><path d="m 161.60882,70.707511 c -9.20028,9.439458 -29.08795,15.776092 -51.84562,15.776092 l 41.8088,30.057827 45.69976,-29.246885 -1.22566,-35.20638 -50.47867,-25.483944 2.11886,35.626015 c 4.42899,2.061068 6.31003,2.337309 13.92253,8.477275 z" id="path3081" style="fill:#000000;fill-opacity:1;fill-rule:evenodd;stroke-width:0.70555556;stroke-miterlimit:4;stroke-dasharray:none"/></clipPath><filter x="-0.14058802" y="-0.81943595" width="1.281176" height="2.6388719" color-interpolation-filters="sRGB" id="filter3846"><feGaussianBlur id="feGaussianBlur3848" stdDeviation="5.8811294"/></filter></defs>
 <g transform="matrix(0.08063493,0,0,0.08063493,95.95556,31.60888)" id="g4499"><path d="m 0,20 0,100 60,0 0,-20.000001 -40,0 L 20,20 z" id="rect3023" style="fill:#9000cc;fill-opacity:1;stroke:none"/><path d="m 80,20 0,100 60,0 0,-20.000001 -40,0 0,-20 40,0 L 140,60 l -40,0 0,-20 40,0 0,-20 z" id="rect3004" style="fill:#9000cc;fill-opacity:1;stroke:none"/><path d="m 210,40.000003 0,20 20,0 c 5.52285,0 10,4.47715 10,10 0,5.52285 -4.47715,9.999995 -10,9.999995 l -20,0 0,20 20,0 c 16.56854,0 30,-13.43146 30,-29.999995 0,-16.56854 -13.43146,-30 -30,-30 z m 20,-40 c -38.65993,0 -70,31.34007 -70,70 C 160,108.65993 191.34007,140 230,140 c 38.65993,0 70,-31.34007 70,-69.999997 0,-38.65993 -31.34007,-70 -70,-70 z m 0,20 c 27.61424,0 50,22.38576 50,50 C 280,97.614236 257.61424,120 230,120 c -27.61424,0 -50,-22.385764 -50,-49.999997 0,-27.61424 22.38576,-50 50,-50 z" id="path3029" style="fill:#9000cc;fill-opacity:1;stroke:none"/><path d="m 320,20 0,100 20,0 0,-62.78125 40,62.78125 20,0 0,-100 -20,0 0,62.78125 L 340,20 z" id="rect3051" style="fill:#ff0000;fill-opacity:1;stroke:none"/><rect width="20" height="100" x="420" y="20" id="rect3002" style="fill:#9000cc;fill-opacity:1;stroke:none"/><path d="m 460,20 0,100 50,0 c 16.56854,0 30,-13.43146 30,-30 l 0,-40 C 540,33.43146 526.56854,20 510,20 z m 20,20 30,0 c 5.52285,0 10,4.47715 10,10 l 0,40 c 0,5.522847 -4.47715,10 -10,10 l -30,0 z" id="path3053" style="fill:#9000cc;fill-opacity:1;stroke:none"/><path d="m 660,20 -20,20 30,0 c 5.52285,0 10,4.47715 10,10 0,5.52285 -4.47715,10 -10,10 -16.56854,0 -30,13.43146 -30,30 l 0,30 60,0 0,-20 -40,0 0,-10 c 0,-5.52285 4.47715,-10 10,-10 16.56854,0 30,-13.43146 30,-30 0,-16.56853 -13.43146,-30 -30,-30 l -10,0 z" id="path3071" style="fill:#9000cc;fill-opacity:1;stroke:none"/><path d="m 790,3e-6 c -38.65993,0 -70,31.34007 -70,70 C 720,108.65993 751.34007,140 790,140 c 38.65993,0 70,-31.34007 70,-69.999997 0,-38.65993 -31.34007,-70 -70,-70 z m 0,20 c 27.61424,0 50,22.38576 50,50 C 840,97.614238 817.61424,120 790,120 c -27.61424,0 -50,-22.385762 -50,-49.999997 0,-27.61424 22.38576,-50 50,-50 z" id="path3041" style="fill:#9000cc;fill-opacity:1;stroke:none"/><path d="m 880,40 0,80 20,0 0,-100 z" id="rect3068" style="fill:#9000cc;fill-opacity:1;stroke:none"/><path d="m 920,20 0,60 30,0 c 5.52285,0 10,4.47715 10,10 0,5.52285 -4.47715,10 -10,10 l -30,0 20,20 10,0 c 16.56854,0 30,-13.43146 30,-30 0,-16.56854 -13.43146,-30 -30,-30 l -10,0 0,-20 40,0 0,-20 z" id="path3043" style="fill:#9000cc;fill-opacity:1;stroke:none"/></g><path d="m 110.66942,55.666848 c 22.12634,0 41.33313,6.101296 50.93956,15.040664 -9.20027,9.439462 -28.85464,15.962717 -51.61229,15.962717 -22.224832,0 -41.491151,-6.22189 -50.949767,-15.305715 9.357496,-9.296281 28.958945,-15.697666 51.622497,-15.697666 z m -0.0385,-45.8256817 c 53.63597,0 97.13213,24.8226737 97.13213,60.8747257 0,36.052048 -43.49648,61.243868 -97.13213,61.243868 -53.633571,0 -97.129737,-25.19182 -97.129737,-61.243868 0,-36.052052 43.496486,-60.8747257 97.129737,-60.8747257 z" id="path10" style="fill:#e6e6e6;stroke-width:0.70555556;stroke-miterlimit:4;stroke-dasharray:none"/><path d="M 60.689122,68.505841 C 54.636317,75.800749 42.133587,75.270765 32.763508,67.322089 23.393419,59.373413 20.704228,47.016046 26.757043,39.721137 m 32.792779,29.934559 c -5.521285,8.185636 -18.244845,9.258278 -28.418874,2.395809 -10.17403,-6.862466 -13.945824,-19.061364 -8.424539,-27.247 M 58.530902,71.216346 C 53.571717,80.162931 40.843912,82.58887 30.102538,76.634833 19.361168,70.680796 14.673773,58.601454 19.632958,49.654868 M 58.318562,71.216405 C 54.765787,80.977595 42.530227,85.485494 30.989688,81.285076 19.449148,77.084659 12.973803,65.766539 16.526584,56.005348 M 58.316462,71.435612 C 56.243578,81.734455 44.782568,88.114735 32.717638,85.686377 20.652698,83.258022 12.552558,72.940588 14.625473,62.64175 m 43.915069,8.718412 C 58.095922,81.90967 47.716902,90.039489 35.358367,89.518621 22.999829,88.997757 13.341693,80.023448 13.786313,69.473941 m 44.945729,1.831373 c 1.1051,10.51431 -7.984189,20.087321 -20.30149,21.38192 -12.317299,1.294594 -23.198299,-6.179461 -24.303399,-16.69377 m 73.978794,8.753194 c 3.659503,0.714484 4.713071,11.092102 2.35321,23.179062 -2.359862,12.08695 -7.239522,21.30617 -10.899026,20.59168 M 58.867642,71.490138 C 61.389053,81.60299 53.728557,92.22069 41.757447,95.205433 29.786333,98.190177 18.037824,92.411704 15.516413,82.298851 M 58.873912,71.225357 c 4.053831,9.392617 -1.832524,20.96571 -13.147554,25.849236 -11.31489,4.883547 -23.773809,1.228215 -27.827634,-8.164396 M 58.614152,70.808658 c 5.674925,8.289214 2.03224,20.652318 -8.136159,27.613766 -10.1684,6.961446 -23.01195,5.885076 -28.686884,-2.404136 M 59.404952,71.723984 c 6.343145,7.278298 3.95452,19.741688 -5.335095,27.837771 -9.289639,8.096085 -21.962539,8.759015 -28.305674,1.480725 M 60.630622,73.139015 c 6.758566,6.350398 5.397175,18.778384 -3.040795,27.758675 -8.437945,8.9803 -20.757145,11.11226 -27.515719,4.76186 M 83.269793,83.729557 c 4.468705,1.126493 5.660325,11.683171 2.661558,23.579003 -2.998767,11.89582 -9.052348,20.6261 -13.521052,19.4996 M 93.198354,85.526596 c 2.813991,0.412266 3.645371,10.642353 1.856941,22.849534 -1.788426,12.20719 -5.519428,21.76886 -8.333421,21.35659 M 61.920843,74.220973 c 7.118574,5.171956 7.017724,17.446227 -0.22527,27.415347 -7.242996,9.96913 -18.885356,13.858 -26.003941,8.68605 M 64.694897,76.13924 c 6.94553,4.452291 7.208894,16.434193 0.58824,26.76233 -6.620645,10.32813 -17.618205,15.09144 -24.563735,10.63915 M 67.858118,78.220004 c 6.666777,3.711221 7.234043,15.409272 1.267029,26.128326 -5.967015,10.71906 -16.20873,16.40003 -22.8755,12.68881 M 70.653381,79.395567 c 6.405617,2.80961 7.603654,14.194856 2.675891,25.429653 -4.927764,11.2348 -14.11528,18.06477 -20.520895,15.25515 m 21.69787,-39.068473 c 5.823975,2.174545 7.06651,13.254286 2.775281,24.747293 -4.291228,11.49301 -12.491221,19.04712 -18.315196,16.87257 m 19.7376,-40.139431 c 5.308254,1.618546 6.710886,12.4434 3.132868,24.177991 -3.578019,11.73459 -10.781765,19.93526 -16.090013,18.31671 M 80.399343,59.042111 C 75.402024,60.381138 68.752177,51.768053 65.546494,39.804245 62.340811,27.840437 63.793221,17.056358 68.79054,15.71733 M 86.355253,57.580594 C 81.294707,58.656248 75.104742,49.70696 72.529583,37.5918 69.954419,25.47664 71.969226,14.783372 77.029775,13.707718 M 92.415668,56.516531 C 87.292413,57.236558 81.741797,47.877284 80.018018,35.612008 78.294235,23.346732 81.050064,12.820062 86.173318,12.100035 M 99.402705,55.702584 C 94.257434,56.243374 89.036825,46.69608 87.74215,34.378105 86.447474,22.06013 89.568999,11.636041 94.71427,11.095252 M 105.1223,55.318128 C 99.951857,55.498683 95.409966,45.610447 94.977707,33.232133 94.545448,20.85382 98.386509,10.672845 103.55696,10.49229 M 75.756288,60.538276 C 70.392438,62.385204 62.775252,54.3888 58.742829,42.677808 54.710404,30.966816 55.789734,19.975951 61.153588,18.129022 m -0.05085,50.210352 C 54.151031,74.172544 42.071284,71.221268 34.121865,61.747517 26.172448,52.273765 25.363651,39.86505 32.315346,34.031885 m 30.032631,33.606474 c -7.022332,4.56036 -18.22233,-0.223194 -25.015898,-10.684365 -6.79357,-10.46117 -6.608114,-22.63853 0.414218,-27.198889 M 64.783331,66.021977 C 57.780806,69.745284 47.338274,63.800336 41.459284,52.743564 35.580293,41.686793 36.491096,29.705171 43.493622,25.981865 M 67.963788,64.202026 C 61.260347,67.186597 51.714853,60.371945 46.643333,48.981074 41.571814,37.590203 42.894749,25.936604 49.598192,22.952033 m 22.65006,38.976384 C 66.157698,64.513704 57.297119,57.366988 52.457594,45.965779 47.618071,34.564571 48.63223,23.226277 54.722783,20.640991 m 43.701022,65.680768 c 2.030885,0.196128 2.720795,10.259107 1.540951,22.476291 -1.179841,12.21719 -3.782648,21.96218 -5.813533,21.76605 m 9.807247,-43.901059 c 1.17825,0.0653 1.57869,10.126708 0.89441,22.472769 -0.68427,12.34607 -2.19415,22.30159 -3.37241,22.23629" id="path3928" style="opacity:0.5;fill:none;stroke:#afafe8;stroke-width:0.70555556;stroke-linecap:round;stroke-miterlimit:4;stroke-dasharray:none"/>
<path d="m 146.09801,127.30108 c -4.09202,1.44099 -9.77681,-7.05491 -12.69731,-18.97614 -2.92051,-11.921219 -1.9708,-22.753433 2.12123,-24.194422 m 17.82444,41.433532 c -4.70817,2.12582 -11.53952,-5.65396 -15.25825,-17.37664 -3.71873,-11.722679 -2.91663,-22.949109 1.79153,-25.074936 m 20.39012,40.321286 c -5.2069,2.88624 -13.056,-4.0841 -17.53146,-15.56868 -4.47546,-11.484578 -3.88251,-23.134428 1.3244,-26.020664 m 23.12543,38.982194 c -5.52378,3.82105 -14.39103,-2.085 -19.80556,-13.19154 -5.41453,-11.106536 -5.32596,-23.207735 0.19782,-27.028785 m -23.50991,50.416785 c -1.67429,0.20448 -3.86915,-9.59987 -4.90237,-21.89863 -1.03322,-12.29876 -0.51353,-22.434643 1.16075,-22.639126 m 10.98682,43.804046 c -2.55391,0.48234 -5.901,-9.0402 -7.47593,-21.26919 -1.57493,-12.22898 -0.78131,-22.533539 1.77261,-23.015874 m 13.1561,42.908804 c -3.38154,0.90609 -7.93127,-8.15416 -10.16211,-20.23662 -2.23084,-12.082468 -1.29801,-22.611763 2.08353,-23.517844 m 41.79175,33.252224 c -6.58313,3.35427 -16.47301,-2.86269 -22.08966,-13.88599 -5.61665,-11.023289 -4.83316,-22.678612 1.74996,-26.032888 m 25.64254,36.950718 c -6.84847,3.95397 -17.42772,-1.54852 -23.62941,-12.29015 -6.20169,-10.741635 -5.67737,-22.65478 1.17111,-26.608755 m 28.11401,35.319385 c -6.90685,4.83624 -18.27323,0.52027 -25.38752,-9.63997 -7.11428,-10.160247 -7.28244,-22.317291 -0.37558,-27.153521 m 30.35876,33.178951 c -6.88263,5.49623 -18.73649,2.09473 -26.47633,-7.59744 -7.73984,-9.692184 -8.43474,-22.004821 -1.55211,-27.501048 m 31.58703,32.141628 c -6.42152,5.78197 -18.3678,2.98297 -26.68277,-6.251747 -8.31497,-9.234718 -9.84991,-21.408152 -3.42839,-27.190127 m 34.25992,28.854624 c -5.70318,6.49159 -17.89442,5.1053 -27.22991,-3.096374 -9.33548,-8.201675 -12.28005,-20.112924 -6.57687,-26.604519 m 38.46577,23.792099 c -4.35961,7.460624 -16.59138,8.426224 -27.32042,2.156723 C 162.35273,90.682956 157.18929,79.552487 161.54891,72.09186 m 41.61924,17.998567 c -3.52911,7.887495 -15.58526,10.167343 -26.92816,5.092172 C 164.8971,90.107434 158.56277,79.59912 162.09189,71.711625 M 205.5858,84.0952 c -2.39786,8.301662 -14.01976,12.23607 -25.95825,8.787746 C 167.68906,89.434622 159.95484,79.909375 162.3527,71.607712 m 44.57348,6.037527 c -1.16123,8.562642 -12.08491,14.150267 -24.39871,12.480309 -12.31379,-1.669958 -21.35473,-9.965119 -20.19349,-18.527761 m 44.90877,1.318997 C 206.72259,81.542139 196.2455,87.927976 183.8415,87.179951 171.4375,86.431926 161.80374,78.8333 162.32389,70.207946 m 44.80362,-1.580708 c 0.09,8.640558 -9.91021,15.750026 -22.33607,15.879442 -12.42587,0.129417 -22.57198,-6.770226 -22.66197,-15.410783 m 44.32774,-4.891538 c 0.60176,8.620034 -8.95967,16.309494 -21.35606,17.174888 -12.3964,0.865395 -22.93349,-5.420983 -23.53526,-14.041018 m 43.73679,-8.716991 c 1.57939,8.495455 -7.04425,17.223627 -19.26143,19.494919 -12.21717,2.271291 -23.4015,-2.77439 -24.98089,-11.269845 m -44.63093,64.482378 c -0.7795,0.039 -1.74481,-9.94921 -2.1561,-22.30921 -0.41129,-12.359999 -0.1128,-22.411344 0.6667,-22.450307 m -5.73729,45.021467 c -0.17957,-7.3e-4 -0.28452,-10.02509 -0.23441,-22.39003 0.0501,-12.36494 0.23631,-22.388116 0.41589,-22.387388" id="_154703664" style="opacity:0.5;fill:none;stroke:#afafe8;stroke-width:0.70555556;stroke-linecap:round;stroke-miterlimit:4;stroke-opacity:1;stroke-dasharray:none"/><g id="g3889"/><path d="m 146.09801,127.30108 c -4.09202,1.44099 -9.77681,-7.05491 -12.69731,-18.97614 -2.92051,-11.921219 -1.9708,-22.753433 2.12123,-24.194422 m 17.82444,41.433532 c -4.70817,2.12582 -11.53952,-5.65396 -15.25825,-17.37664 -3.71873,-11.722679 -2.91663,-22.949109 1.79153,-25.074936 m 20.39012,40.321286 c -5.2069,2.88624 -13.056,-4.0841 -17.53146,-15.56868 -4.47546,-11.484578 -3.88251,-23.134428 1.3244,-26.020664 m 23.12543,38.982194 c -5.52378,3.82105 -14.39103,-2.085 -19.80556,-13.19154 -5.41453,-11.106536 -5.32596,-23.207735 0.19782,-27.028785 m -23.50991,50.416785 c -1.67429,0.20448 -3.86915,-9.59987 -4.90237,-21.89863 -1.03322,-12.29876 -0.51353,-22.434643 1.16075,-22.639126 m 10.98682,43.804046 c -2.55391,0.48234 -5.901,-9.0402 -7.47593,-21.26919 -1.57493,-12.22898 -0.78131,-22.533539 1.77261,-23.015874 m 13.1561,42.908804 c -3.38154,0.90609 -7.93127,-8.15416 -10.16211,-20.23662 -2.23084,-12.082468 -1.29801,-22.611763 2.08353,-23.517844 m 41.79175,33.252224 c -6.58313,3.35427 -16.47301,-2.86269 -22.08966,-13.88599 -5.61665,-11.023289 -4.83316,-22.678612 1.74996,-26.032888 m 25.64254,36.950718 c -6.84847,3.95397 -17.42772,-1.54852 -23.62941,-12.29015 -6.20169,-10.741635 -5.67737,-22.65478 1.17111,-26.608755 m 28.11401,35.319385 c -6.90685,4.83624 -18.27323,0.52027 -25.38752,-9.63997 -7.11428,-10.160247 -7.28244,-22.317291 -0.37558,-27.153521 m 30.35876,33.178951 c -6.88263,5.49623 -18.73649,2.09473 -26.47633,-7.59744 -7.73984,-9.692184 -8.43474,-22.004821 -1.55211,-27.501048 m 31.58703,32.141628 c -6.42152,5.78197 -18.3678,2.98297 -26.68277,-6.251747 -8.31497,-9.234718 -9.84991,-21.408152 -3.42839,-27.190127 m 34.25992,28.854624 c -5.70318,6.49159 -17.89442,5.1053 -27.22991,-3.096374 -9.33548,-8.201675 -12.28005,-20.112924 -6.57687,-26.604519 m 38.46577,23.792099 c -4.35961,7.460624 -16.59138,8.426224 -27.32042,2.156723 C 162.35273,90.682956 157.18929,79.552487 161.54891,72.09186 m 41.61924,17.998567 c -3.52911,7.887495 -15.58526,10.167343 -26.92816,5.092172 C 164.8971,90.107434 158.56277,79.59912 162.09189,71.711625 M 205.5858,84.0952 c -2.39786,8.301662 -14.01976,12.23607 -25.95825,8.787746 C 167.68906,89.434622 159.95484,79.909375 162.3527,71.607712 m 44.57348,6.037527 c -1.16123,8.562642 -12.08491,14.150267 -24.39871,12.480309 -12.31379,-1.669958 -21.35473,-9.965119 -20.19349,-18.527761 m 44.90877,1.318997 C 206.72259,81.542139 196.2455,87.927976 183.8415,87.179951 171.4375,86.431926 161.80374,78.8333 162.32389,70.207946 m 44.80362,-1.580708 c 0.09,8.640558 -9.91021,15.750026 -22.33607,15.879442 -12.42587,0.129417 -22.57198,-6.770226 -22.66197,-15.410783 m 44.32774,-4.891538 c 0.60176,8.620034 -8.95967,16.309494 -21.35606,17.174888 -12.3964,0.865395 -22.93349,-5.420983 -23.53526,-14.041018 m 43.73679,-8.716991 c 1.57939,8.495455 -7.04425,17.223627 -19.26143,19.494919 -12.21717,2.271291 -23.4015,-2.77439 -24.98089,-11.269845 m -44.63093,64.482378 c -0.7795,0.039 -1.74481,-9.94921 -2.1561,-22.30921 -0.41129,-12.359999 -0.1128,-22.411344 0.6667,-22.450307 m -5.73729,45.021467 c -0.17957,-7.3e-4 -0.28452,-10.02509 -0.23441,-22.39003 0.0501,-12.36494 0.23631,-22.388116 0.41589,-22.387388 M 60.689122,68.505841 C 54.636317,75.800749 42.133587,75.270765 32.763508,67.322089 23.393419,59.373413 20.704228,47.016046 26.757043,39.721137 m 32.792779,29.934559 c -5.521285,8.185636 -18.244845,9.258278 -28.418874,2.395809 -10.17403,-6.862466 -13.945824,-19.061364 -8.424539,-27.247 M 58.530902,71.216346 C 53.571717,80.162931 40.843912,82.58887 30.102538,76.634833 19.361168,70.680796 14.673773,58.601454 19.632958,49.654868 M 58.318562,71.216405 C 54.765787,80.977595 42.530227,85.485494 30.989688,81.285076 19.449148,77.084659 12.973803,65.766539 16.526584,56.005348 M 58.316462,71.435612 C 56.243578,81.734455 44.782568,88.114735 32.717638,85.686377 20.652698,83.258022 12.552558,72.940588 14.625473,62.64175 m 43.915069,8.718412 C 58.095922,81.90967 47.716902,90.039489 35.358367,89.518621 22.999829,88.997757 13.341693,80.023448 13.786313,69.473941 m 44.945729,1.831373 c 1.1051,10.51431 -7.984189,20.087321 -20.30149,21.38192 -12.317299,1.294594 -23.198299,-6.179461 -24.303399,-16.69377 m 73.978794,8.753194 c 3.659503,0.714484 4.713071,11.092102 2.35321,23.179062 -2.359862,12.08695 -7.239522,21.30617 -10.899026,20.59168 M 58.867642,71.490138 C 61.389053,81.60299 53.728557,92.22069 41.757447,95.205433 29.786333,98.190177 18.037824,92.411704 15.516413,82.298851 M 58.873912,71.225357 c 4.053831,9.392617 -1.832524,20.96571 -13.147554,25.849236 -11.31489,4.883547 -23.773809,1.228215 -27.827634,-8.164396 M 58.614152,70.808658 c 5.674925,8.289214 2.03224,20.652318 -8.136159,27.613766 -10.1684,6.961446 -23.01195,5.885076 -28.686884,-2.404136 M 59.404952,71.723984 c 6.343145,7.278298 3.95452,19.741688 -5.335095,27.837771 -9.289639,8.096085 -21.962539,8.759015 -28.305674,1.480725 M 60.630622,73.139015 c 6.758566,6.350398 5.397175,18.778384 -3.040795,27.758675 -8.437945,8.9803 -20.757145,11.11226 -27.515719,4.76186 M 83.269793,83.729557 c 4.468705,1.126493 5.660325,11.683171 2.661558,23.579003 -2.998767,11.89582 -9.052348,20.6261 -13.521052,19.4996 M 93.198354,85.526596 c 2.813991,0.412266 3.645371,10.642353 1.856941,22.849534 -1.788426,12.20719 -5.519428,21.76886 -8.333421,21.35659 M 61.920843,74.220973 c 7.118574,5.171956 7.017724,17.446227 -0.22527,27.415347 -7.242996,9.96913 -18.885356,13.858 -26.003941,8.68605 M 64.694897,76.13924 c 6.94553,4.452291 7.208894,16.434193 0.58824,26.76233 -6.620645,10.32813 -17.618205,15.09144 -24.563735,10.63915 M 67.858118,78.220004 c 6.666777,3.711221 7.234043,15.409272 1.267029,26.128326 -5.967015,10.71906 -16.20873,16.40003 -22.8755,12.68881 M 70.653381,79.395567 c 6.405617,2.80961 7.603654,14.194856 2.675891,25.429653 -4.927764,11.2348 -14.11528,18.06477 -20.520895,15.25515 m 21.69787,-39.068473 c 5.823975,2.174545 7.06651,13.254286 2.775281,24.747293 -4.291228,11.49301 -12.491221,19.04712 -18.315196,16.87257 m 19.7376,-40.139431 c 5.308254,1.618546 6.710886,12.4434 3.132868,24.177991 -3.578019,11.73459 -10.781765,19.93526 -16.090013,18.31671 M 80.399343,59.042111 C 75.402024,60.381138 68.752177,51.768053 65.546494,39.804245 62.340811,27.840437 63.793221,17.056358 68.79054,15.71733 M 86.355253,57.580594 C 81.294707,58.656248 75.104742,49.70696 72.529583,37.5918 69.954419,25.47664 71.969226,14.783372 77.029775,13.707718 M 92.415668,56.516531 C 87.292413,57.236558 81.741797,47.877284 80.018018,35.612008 78.294235,23.346732 81.050064,12.820062 86.173318,12.100035 M 99.402705,55.702584 C 94.257434,56.243374 89.036825,46.69608 87.74215,34.378105 86.447474,22.06013 89.568999,11.636041 94.71427,11.095252 M 105.1223,55.318128 C 99.951857,55.498683 95.409966,45.610447 94.977707,33.232133 94.545448,20.85382 98.386509,10.672845 103.55696,10.49229 M 75.756288,60.538276 C 70.392438,62.385204 62.775252,54.3888 58.742829,42.677808 54.710404,30.966816 55.789734,19.975951 61.153588,18.129022 m -0.05085,50.210352 C 54.151031,74.172544 42.071284,71.221268 34.121865,61.747517 26.172448,52.273765 25.363651,39.86505 32.315346,34.031885 m 30.032631,33.606474 c -7.022332,4.56036 -18.22233,-0.223194 -25.015898,-10.684365 -6.79357,-10.46117 -6.608114,-22.63853 0.414218,-27.198889 M 64.783331,66.021977 C 57.780806,69.745284 47.338274,63.800336 41.459284,52.743564 35.580293,41.686793 36.491096,29.705171 43.493622,25.981865 M 67.963788,64.202026 C 61.260347,67.186597 51.714853,60.371945 46.643333,48.981074 41.571814,37.590203 42.894749,25.936604 49.598192,22.952033 m 22.65006,38.976384 C 66.157698,64.513704 57.297119,57.366988 52.457594,45.965779 47.618071,34.564571 48.63223,23.226277 54.722783,20.640991 m 43.701022,65.680768 c 2.030885,0.196128 2.720795,10.259107 1.540951,22.476291 -1.179841,12.21719 -3.782648,21.96218 -5.813533,21.76605 m 9.807247,-43.901059 c 1.17825,0.0653 1.57869,10.126708 0.89441,22.472769 -0.68427,12.34607 -2.19415,22.30159 -3.37241,22.23629" id="path3105" style="fill:none;stroke:url(#radialGradient3899);stroke-width:0.28222224;stroke-linecap:round;stroke-miterlimit:4;stroke-opacity:1;stroke-dasharray:none"/><g id="g3893"><path d="m 269.53245,109.52912 c 0,34.15522 -53.3943,62.04838 -120.27046,62.04838 -66.876155,0 -121.089993,-27.68828 -121.089993,-61.8435 0,-34.15522 54.213838,-61.843497 121.089993,-61.843497 66.87616,0 120.27046,27.483392 120.27046,61.638617 z m 0.61467,-6.25868 c 0,34.23956 -54.14551,61.89376 -121.19012,61.89376 -67.044605,0 -121.394996,-27.75664 -121.394996,-61.9962 0,-34.239557 54.350391,-61.996201 121.394996,-61.996201 67.04461,0 121.19012,27.859086 121.19012,62.098641 z M 231.56629,81.331497 c 0,24.372493 -37.7376,44.130303 -84.2893,44.130303 -46.55169,0 -84.289296,-19.75781 -84.289296,-44.130303 0,-24.372491 37.737606,-44.130298 84.289296,-44.130298 46.5517,0 84.2893,19.757807 84.2893,44.130298 z M 241.9502,81.0261 c 0,26.39651 -41.83953,47.7951 -93.45121,47.7951 -51.611671,0 -93.451199,-21.39859 -93.451199,-47.7951 0,-26.396505 41.839528,-47.795101 93.451199,-47.795101 51.61168,0 93.45121,21.398596 93.45121,47.795101 z m 18.0178,3.9702 c 0,31.1192 -49.35971,56.3463 -110.248,56.3463 -60.888288,0 -110.248,-25.2271 -110.248,-56.3463 0,-31.119201 49.359712,-56.346298 110.248,-56.346298 24.73598,0 47.49893,4.972462 65.89304,12.003077 26.8835,10.275436 44.35496,25.866252 44.35496,44.343221 z m -8.246,-3.054001 c 0,29.432521 -46.14646,53.292301 -103.071,53.292301 -56.92454,0 -103.070998,-23.85978 -103.070998,-53.292301 0,-29.432525 46.146458,-53.292301 103.070998,-53.292301 56.92454,0 103.071,23.859776 103.071,53.292301 z m 16.797,13.743004 c 0,33.480547 -53.46168,60.621897 -119.41001,60.621897 -65.94832,0 -119.41,-27.14135 -119.41,-60.621897 0,-33.48055 53.46168,-60.621899 119.41,-60.621899 65.94833,0 119.41001,27.141349 119.41001,60.621899 z M 264.243,90.0354 c 0,32.38421 -51.54725,58.6368 -115.13401,58.6368 -63.58675,0 -115.133999,-26.25259 -115.133999,-58.6368 0,-32.384209 51.547249,-58.636798 115.133999,-58.636798 63.58676,0 115.13401,26.252589 115.13401,58.636798 z m -16.1856,38.32761 c 0,28.08318 -44.50576,50.84909 -99.4064,50.84909 -54.900639,0 -99.406402,-22.76591 -99.406402,-50.84909 0,-28.08318 44.505763,-50.849102 99.406402,-50.849102 54.90064,0 99.4064,22.765922 99.4064,50.849102 z M 258.136,125.92 c 0,30.10719 -48.40249,54.5139 -108.11,54.5139 -59.707504,0 -108.11,-24.40671 -108.11,-54.5139 0,-30.107198 48.402496,-54.513903 108.11,-54.513903 59.70751,0 108.11,24.406705 108.11,54.513903 z m 5.192,-4.734 c 0,32.04687 -51.27414,58.026 -114.524,58.026 -63.249859,0 -114.524001,-25.97913 -114.524001,-58.026 0,-32.046878 51.274142,-58.026004 114.524001,-58.026004 63.24986,0 114.524,25.979126 114.524,58.026004 z m 4.275,-5.955 c 0,33.48055 -53.05158,60.6219 -118.49401,60.6219 -65.442427,0 -118.494,-27.14135 -118.494,-60.6219 0,-33.480547 53.051573,-60.621896 118.494,-60.621896 65.44243,0 118.49401,27.141349 118.49401,60.621896 z m -26.87411,13.13201 c 0,26.22783 -41.22423,47.4897 -92.0769,47.4897 -50.852663,0 -92.076894,-21.26187 -92.076894,-47.4897 0,-26.22784 41.224231,-47.489704 92.076894,-47.489704 50.85267,0 92.0769,21.261864 92.0769,47.489704 z m -13.7428,-3.49401 c 0,21.91693 -35.07137,39.6841 -78.3341,39.6841 -43.26273,0 -78.334096,-17.76717 -78.334096,-39.6841 0,-21.91692 35.071366,-39.684098 78.334096,-39.684098 43.26273,0 78.3341,17.767178 78.3341,39.684098 z m 7.93981,2.883 c 0,23.69782 -38.28454,42.9087 -85.51091,42.9087 -47.22636,0 -85.510899,-19.21088 -85.510899,-42.9087 0,-23.69782 38.284539,-42.9087 85.510899,-42.9087 47.22637,0 85.51091,19.21088 85.51091,42.9087 z m -14.9668,-7.628 c 0,19.64587 -31.8523,35.572 -71.1441,35.572 -39.2918,0 -71.144094,-15.92613 -71.144094,-35.572 0,-19.64587 31.852294,-35.571998 71.144094,-35.571998 39.2918,0 71.1441,15.926128 71.1441,35.571998 z m -3.3565,-6.726 c 0,19.31246 -30.21747,34.9683 -67.4926,34.9683 -37.27513,0 -67.492599,-15.65584 -67.492599,-34.9683 0,-19.312456 30.217469,-34.968297 67.492599,-34.968297 37.27513,0 67.4926,15.655841 67.4926,34.968297 z m -1.83231,-5.344 c 0,18.38479 -29.36935,33.2886 -65.59829,33.2886 -36.22894,0 -65.5983,-14.90381 -65.5983,-33.2886 0,-18.384786 29.36936,-33.2886 65.5983,-33.2886 36.22894,0 65.59829,14.903814 65.59829,33.2886 z m -0.9243,-6.872 c 0,18.46912 -29.25864,33.4413 -65.35099,33.4413 -36.09236,0 -65.351003,-14.97218 -65.351003,-33.4413 0,-18.46912 29.258643,-33.4413 65.351003,-33.4413 36.09235,0 65.35099,14.97218 65.35099,33.4413 z m 2.52971,-7.787202 c 0,19.228122 -30.50852,34.815602 -68.1427,34.815602 -37.63417,0 -68.142698,-15.58748 -68.142698,-34.815602 0,-19.228125 30.508528,-34.815601 68.142698,-34.815601 37.63418,0 68.1427,15.587476 68.1427,34.815601 z m 4.42661,-4.733696 c 0,20.155798 -32.59336,36.495298 -72.7993,36.495298 -40.20595,0 -72.799305,-16.3395 -72.799305,-36.495298 0,-20.155797 32.593355,-36.4953 72.799305,-36.4953 40.20594,0 72.7993,16.339503 72.7993,36.4953 z m 5.27049,-3.206703 c 0,21.926811 -35.00363,39.702001 -78.1828,39.702001 -43.17917,0 -78.182801,-17.77519 -78.182801,-39.702001 0,-21.926809 35.003631,-39.702 78.182801,-39.702 43.17917,0 78.1828,17.775191 78.1828,39.702 z" transform="matrix(0.79810794,0,0,0.79810794,-8.2526542,-12.780884)" id="ellipse80" style="fill:none;stroke:#afafe8;stroke-width:0.88403529;stroke-miterlimit:4;stroke-dasharray:none"/></g><path d="m 172.17784,55.42095 c 0,17.499962 -27.93667,31.686483 -62.39831,31.686483 -34.461635,0 -62.398315,-14.186521 -62.398315,-31.686483 0,-17.49996 27.93668,-31.686481 62.398315,-31.686481 34.46164,0 62.39831,14.186521 62.39831,31.686481 z m -4.20642,2.559295 c 0,16.086503 -26.01302,29.127188 -58.1017,29.127188 -32.08869,0 -58.1017,-13.040685 -58.1017,-29.127188 0,-16.086501 26.01301,-29.127188 58.1017,-29.127188 32.08868,0 58.1017,13.040687 58.1017,29.127188 z m -3.53291,3.778001 c 0,15.346117 -24.34909,27.786608 -54.38523,27.786608 -30.03613,0 -54.38523,-12.440491 -54.38523,-27.786608 0,-15.346119 24.3491,-27.786608 54.38523,-27.786608 30.03614,0 54.38523,12.440489 54.38523,27.786608 z m 40.88491,17.427646 c 0,26.721088 -42.34088,48.382818 -94.57101,48.382818 -52.23012,0 -94.570998,-21.66173 -94.570998,-48.382818 0,-26.72109 42.340878,-48.382817 94.570998,-48.382817 52.23013,0 94.57101,21.661727 94.57101,48.382817 z m -3.41191,4.752733 c 0,25.576865 -40.92229,46.311015 -91.40251,46.311015 -50.48022,0 -91.402515,-20.73415 -91.402515,-46.311015 0,-25.576868 40.922295,-46.311015 91.402515,-46.311015 50.48022,0 91.40251,20.734147 91.40251,46.311015 z m 0.73027,-24.861541 c 0,25.846095 -41.14027,46.798496 -91.88937,46.798496 -50.74909,0 -91.889354,-20.952401 -91.889354,-46.798496 0,-25.846095 41.140264,-46.798494 91.889354,-46.798494 50.7491,0 91.88937,20.952399 91.88937,46.798494 z m 3.41271,4.509232 c 0,26.72109 -42.66819,48.382814 -95.30208,48.382814 -52.63387,0 -95.302064,-21.661724 -95.302064,-48.382814 0,-26.721093 42.668194,-48.382819 95.302064,-48.382819 52.63389,0 95.30208,21.661726 95.30208,48.382819 z M 192.64867,52.617915 c 0,23.490329 -36.82985,42.533009 -82.26178,42.533009 -45.431925,0 -82.261783,-19.04268 -82.261783,-42.533009 0,-23.490331 36.829858,-42.533008 82.261783,-42.533008 45.43193,0 82.26178,19.042677 82.26178,42.533008 z m 6.5812,2.437423 c 0,24.836481 -39.39438,44.970432 -87.9898,44.970432 -48.595435,0 -87.989808,-20.133951 -87.989808,-44.970432 0,-24.836482 39.394373,-44.970428 87.989808,-44.970428 48.59542,0 87.9898,20.133946 87.9898,44.970428 z M 184.84972,51.88669 c 0,21.067264 -33.39246,38.145649 -74.58415,38.145649 -41.19169,0 -74.584145,-17.078385 -74.584145,-38.145649 0,-21.06726 33.392455,-38.14565 74.584145,-38.14565 41.19169,0 74.58415,17.07839 74.58415,38.14565 z m -8.28748,0.24374 c 0,19.45188 -30.11868,35.220745 -67.27196,35.220745 -37.153275,0 -67.271955,-15.768865 -67.271955,-35.220745 0,-19.451879 30.11868,-35.220742 67.271955,-35.220742 37.15328,0 67.27196,15.768863 67.27196,35.220742 z m 30.95518,17.427886 c 0,27.326865 -43.37747,49.479664 -96.88631,49.479664 -53.50883,0 -96.88631,-22.152799 -96.88631,-49.479664 0,-27.326862 43.37748,-49.47966 96.88631,-49.47966 53.50884,0 96.88631,22.152798 96.88631,49.47966 z m -0.65408,5.158617 c 0,27.259547 -42.61442,49.439547 -95.98881,49.439547 -53.3744,0 -96.64289,-22.09824 -96.64289,-49.357787 0,-27.259553 43.26849,-49.357786 96.64289,-49.357786 53.37439,0 95.98881,22.016473 95.98881,49.276026 z" id="path4324" style="fill:none;stroke:url(#linearGradient4451);stroke-width:0.28222224;stroke-miterlimit:4;stroke-opacity:1;stroke-dasharray:none"/><path d="m 46.899352,92.770935 c -2.80427,10.057885 40.821065,21.162575 47.431003,13.412315 z" id="path3924" style="fill:#ffffff;stroke:none;filter:url(#filter3942)"/><path d="m 120.32887,86.485314 c 1.67429,-0.204484 3.86915,9.599864 4.90237,21.898626 1.03322,12.29876 0.51353,22.43464 -1.16075,22.63913 m 1.54188,-45.018774 c 2.55391,-0.482334 5.901,9.040206 7.47593,21.269194 1.57493,12.22898 0.78131,22.53354 -1.77261,23.01587 m -0.6258,-45.130724 c 3.38154,-0.906081 7.93127,8.154166 10.16211,20.236624 2.23084,12.08247 1.29801,22.61176 -2.08353,23.51784 m -3.24654,-44.782582 c 4.09202,-1.44099 9.77681,7.054917 12.69731,18.976142 2.92051,11.92122 1.9708,22.75343 -2.12123,24.19442 m -6.21836,-44.188606 c 4.70817,-2.125825 11.53952,5.65396 15.25825,17.376636 3.71873,11.72268 2.91663,22.94911 -1.79153,25.07494 m -9.28366,-43.719634 c 5.2069,-2.886236 13.056,4.0841 17.53146,15.568681 4.47546,11.484583 3.88251,23.134433 -1.3244,26.020663 M 147.5804,80.606285 c 5.52378,-3.821049 14.39103,2.085006 19.80556,13.191543 5.41453,11.106542 5.32596,23.207742 -0.19782,27.028782 M 162.3527,71.607726 c 2.39786,-8.301663 14.01976,-12.236071 25.95825,-8.787747 11.93849,3.448311 19.67271,12.973558 17.27485,21.275221 M 162.33398,71.597787 c 1.16123,-8.562642 12.08491,-14.150267 24.39871,-12.480309 12.31379,1.669958 21.35473,9.965119 20.19349,18.527761 m -44.60229,-7.437293 c 0.52016,-8.625355 10.99725,-15.011192 23.40125,-14.263167 12.404,0.748025 22.03776,8.346651 21.51761,16.972005 m -45.11328,-3.820887 c -0.09,-8.640557 9.91021,-15.750025 22.33607,-15.879442 12.42587,-0.129416 22.57198,6.770227 22.66197,15.410783 m -45.56162,-1.289009 c -0.60176,-8.620034 8.95967,-16.309494 21.35606,-17.174888 12.3964,-0.865394 22.93349,5.420983 23.53526,14.041018 m -45.39685,2.641953 c -1.57939,-8.495455 7.04425,-17.223627 19.26143,-19.494919 12.21717,-2.271291 23.4015,2.77439 24.98089,11.269845 m -43.8194,13.228668 c 6.42152,-5.781974 18.3678,-2.982972 26.68277,6.251747 8.31497,9.234718 9.84991,21.408152 3.42839,27.190127 M 161.93642,71.003637 c 5.70318,-6.491595 17.89442,-5.105301 27.22991,3.096374 9.33548,8.201676 12.28005,20.112925 6.57687,26.604519 M 161.54891,72.091859 c 4.35961,-7.460627 16.59138,-8.426224 27.32042,-2.156722 10.72904,6.269503 15.89248,17.399972 11.53286,24.860599 m -38.3103,-23.084111 c 3.52911,-7.887495 15.58526,-10.167339 26.92816,-5.092173 11.34289,5.075166 17.67722,15.58348 14.1481,23.470975 M 160.00741,73.150152 c 6.88263,-5.496227 18.73649,-2.094735 26.47633,7.597446 7.73984,9.69218 8.43474,22.004812 1.55211,27.501042 M 157.67709,75.069689 c 6.90685,-4.836231 18.27323,-0.520265 25.38752,9.639979 7.11428,10.160243 7.28244,22.317292 0.37558,27.153512 M 155.32618,76.543795 c 6.84847,-3.953973 17.42772,1.548514 23.62941,12.290149 6.20169,10.741635 5.67737,22.654776 -1.17111,26.608756 M 152.14194,78.491982 c 6.58313,-3.354276 16.47301,2.86269 22.08966,13.885984 5.61665,11.023294 4.83316,22.678614 -1.74996,26.032894 M 114.94003,86.569173 c 0.7795,-0.03896 1.74481,9.949209 2.1561,22.309207 0.41129,12.36 0.1128,22.41134 -0.6667,22.45031 m -7.04521,-44.515468 c 0.17957,7.27e-4 0.28452,10.025083 0.23441,22.390028 -0.0501,12.36494 -0.23631,22.38812 -0.41589,22.38739" id="path3909" style="fill:none;stroke:#afafe8;stroke-width:0.70555556;stroke-linecap:round;stroke-miterlimit:4;stroke-dasharray:none"/><path d="M 30.074108,105.65955 C 23.315539,99.309153 24.676943,86.881161 33.114869,77.900866 41.552808,68.920565 53.872008,66.788609 60.630583,73.139008 m -24.93895,37.183362 c -7.118579,-5.17196 -7.017729,-17.44623 0.22527,-27.415354 7.242995,-9.969125 18.885355,-13.857999 26.003941,-8.686043 M 40.719403,113.54072 C 33.773879,109.08843 33.510509,97.106529 40.131164,86.778395 46.751808,76.45026 57.749378,71.686948 64.694898,76.13924 m -18.44525,40.8979 C 39.582874,113.32591 39.015614,101.62786 44.982629,90.908809 50.949644,80.189755 61.191354,74.508783 67.858129,78.220004 M 79.560133,128.5174 C 75.90063,127.80292 74.847062,117.4253 77.206923,105.33834 79.566785,93.251385 84.446445,84.032174 88.105949,84.746658 M 72.410301,126.80816 c -4.468702,-1.12649 -5.660322,-11.68317 -2.661559,-23.579 C 72.74751,91.333335 78.801091,82.603064 83.269795,83.729557 M 52.808378,120.08037 C 46.402758,117.27076 45.204719,105.88552 50.132484,94.650718 55.060248,83.415919 64.247768,76.585955 70.653382,79.395567 M 58.966333,122.63176 c -5.823975,-2.17454 -7.06651,-13.25428 -2.775284,-24.747292 4.291234,-11.493008 12.49123,-19.047116 18.3152,-16.872571 m -8.759461,43.975133 c -5.308255,-1.61855 -6.710895,-12.4434 -3.132874,-24.17799 3.578014,-11.734588 10.781767,-19.935258 16.09002,-18.316711 m 8.017942,47.240391 C 83.907883,129.32046 83.0765,119.09037 84.864931,106.88319 86.653361,94.676 90.384363,85.114329 93.198356,85.526596 M 14.625473,62.64175 C 16.698354,52.342909 28.159354,45.962628 40.224294,48.390985 52.289223,50.81934 60.389363,61.136774 58.316463,71.435612 m -44.53015,-1.961671 c 0.44463,-10.549506 10.82364,-18.679328 23.18217,-18.158462 12.35854,0.520866 22.01668,9.495176 21.57206,20.044683 m -44.41339,4.633302 C 13.022063,65.479155 22.111349,55.906144 34.428649,54.611547 46.745948,53.31695 57.626948,60.791004 58.732043,71.305314 M 15.516413,82.298851 C 12.995003,72.185999 20.655498,61.5683 32.626608,58.583556 44.597719,55.598812 56.346229,61.377285 58.867643,71.490138 M 17.898724,88.910197 c -4.053721,-9.392663 1.832524,-20.965711 13.147554,-25.849237 11.31502,-4.883526 23.77395,-1.228187 27.827775,8.164425 M 21.791119,96.018288 c -5.674945,-8.289211 -2.032251,-20.652319 8.136149,-27.613766 10.168396,-6.961448 23.01195,-5.885081 28.686875,2.404136 m -32.84996,30.233822 c -6.343145,-7.2783 -3.954514,-19.741692 5.335095,-27.837775 9.289666,-8.096074 21.96257,-8.759012 28.305715,-1.480714 m -4.682205,-51.083 c 6.090545,-2.585287 14.951128,4.561429 19.790652,15.962637 4.839525,11.401209 3.825366,22.739503 -2.265187,25.324789 M 49.598193,22.952033 c 6.703446,-2.984572 16.248935,3.83008 21.320455,15.220951 5.071518,11.390871 3.748584,23.044469 -2.954859,26.029042 M 43.493618,25.981865 c 7.002526,-3.723307 17.445065,2.221641 23.324051,13.278413 5.878991,11.056772 4.968187,23.038393 -2.034341,26.761699 M 37.746293,29.755105 c 7.022336,-4.560359 18.222336,0.223194 25.015901,10.684366 6.793566,10.461171 6.608115,22.638529 -0.41422,27.198888 M 32.315348,34.031885 c 6.951706,-5.833168 19.031456,-2.881892 26.980875,6.59186 7.949416,9.473751 8.758216,21.882462 1.806511,27.715629 M 26.757043,39.721137 c 6.052805,-7.294908 18.555526,-6.764925 27.925615,1.183752 9.37008,7.948677 12.059271,20.306044 6.006465,27.600952 M 22.706409,44.804505 c 5.521275,-8.185636 18.244844,-9.258276 28.418875,-2.395809 10.17403,6.862467 13.945824,19.061366 8.424539,27.247 M 19.632958,49.654868 c 4.959175,-8.946585 17.686985,-11.372524 28.428355,-5.418486 10.74137,5.954037 15.42876,18.033379 10.46959,26.979964 M 16.526584,56.005348 c 3.552774,-9.761191 15.788334,-14.269089 27.328874,-10.068671 11.54054,4.200417 18.015886,15.518537 14.463105,25.279728 M 103.55696,10.49229 c 5.17044,-0.180555 9.71233,9.707681 10.14459,22.085995 0.43226,12.378313 -3.4088,22.559288 -8.57925,22.739843 M 94.714275,11.095252 c 5.14527,-0.54079 10.365875,9.006505 11.660545,21.324479 1.29468,12.317975 -1.82684,22.742063 -6.972115,23.282853 M 86.173319,12.100035 c 5.123255,-0.720027 10.673866,8.639247 12.397646,20.904523 1.723775,12.265277 -1.03204,22.791946 -6.155296,23.511973 M 77.029776,13.707718 c 5.060547,-1.075653 11.250511,7.873634 13.82567,19.988794 2.57516,12.11516 0.560355,22.808428 -4.500192,23.884082 M 68.790538,15.71733 c 4.997321,-1.339027 11.647168,7.274059 14.852851,19.237867 3.205682,11.963808 1.753274,22.747887 -3.244045,24.086914 M 61.153594,18.129022 c 5.363844,-1.846928 12.981029,6.149476 17.013454,17.860468 4.032423,11.710992 2.953095,22.701857 -2.410759,24.548786 M 94.151223,130.5641 c -2.030885,-0.19613 -2.720792,-10.25911 -1.540951,-22.47629 1.179841,-12.217187 3.782648,-21.962179 5.813533,-21.766051 m 3.056665,45.050341 c -1.17825,-0.0653 -1.578693,-10.12671 -0.89441,-22.47277 0.68427,-12.346069 2.19415,-22.301593 3.37241,-22.236289" id="path4041" style="fill:none;stroke:#afafe8;stroke-width:0.70555556;stroke-linecap:round;stroke-miterlimit:4;stroke-dasharray:none"/><path d="M 30.074108,105.65955 C 23.315539,99.309153 24.676943,86.881161 33.114869,77.900866 41.552808,68.920565 53.872008,66.788609 60.630583,73.139008 m -24.93895,37.183362 c -7.118579,-5.17196 -7.017729,-17.44623 0.22527,-27.415354 7.242995,-9.969125 18.885355,-13.857999 26.003941,-8.686043 M 40.719403,113.54072 C 33.773879,109.08843 33.510509,97.106529 40.131164,86.778395 46.751808,76.45026 57.749378,71.686948 64.694898,76.13924 m -18.44525,40.8979 C 39.582874,113.32591 39.015614,101.62786 44.982629,90.908809 50.949644,80.189755 61.191354,74.508783 67.858129,78.220004 M 79.560133,128.5174 C 75.90063,127.80292 74.847062,117.4253 77.206923,105.33834 79.566785,93.251385 84.446445,84.032174 88.105945,84.746658 M 72.410301,126.80816 c -4.468702,-1.12649 -5.660322,-11.68317 -2.661559,-23.579 C 72.74751,91.333335 78.801091,82.603064 83.269795,83.729557 M 52.808378,120.08037 C 46.402758,117.27076 45.204719,105.88552 50.132484,94.650718 55.060248,83.415919 64.247768,76.585955 70.653382,79.395567 M 58.966333,122.63176 c -5.823975,-2.17454 -7.06651,-13.25428 -2.775284,-24.747292 4.291234,-11.493008 12.49123,-19.047116 18.3152,-16.872571 m -8.759461,43.975133 c -5.308255,-1.61855 -6.710895,-12.4434 -3.132874,-24.17799 3.578014,-11.734588 10.781767,-19.935258 16.09002,-18.316711 m 8.017941,47.240391 c -2.81399,-0.41226 -3.64538,-10.64235 -1.85694,-22.84953 C 86.653365,94.676 90.38436,85.114329 93.19836,85.526596 M 14.625473,62.64175 C 16.698354,52.342909 28.159354,45.962628 40.224294,48.390985 52.289223,50.81934 60.389363,61.136774 58.316463,71.435612 m -44.53015,-1.961671 c 0.44463,-10.549506 10.82364,-18.679328 23.18217,-18.158462 12.35854,0.520866 22.01668,9.495176 21.57206,20.044683 m -44.41339,4.633302 C 13.022063,65.479155 22.111349,55.906144 34.428649,54.611547 46.745948,53.31695 57.626948,60.791004 58.732043,71.305314 M 15.516413,82.298851 C 12.995003,72.185999 20.655498,61.5683 32.626608,58.583556 44.597719,55.598812 56.346229,61.377285 58.867643,71.490138 M 17.898724,88.910197 c -4.053721,-9.392663 1.832524,-20.965711 13.147554,-25.849237 11.31502,-4.883526 23.77395,-1.228187 27.827775,8.164425 M 21.791119,96.018288 c -5.674945,-8.289211 -2.032251,-20.652319 8.136149,-27.613766 10.168396,-6.961448 23.01195,-5.885081 28.686875,2.404136 m -32.84996,30.233822 c -6.343145,-7.2783 -3.954514,-19.741692 5.335095,-27.837775 9.289666,-8.096074 21.96257,-8.759012 28.305715,-1.480714 m -4.682205,-51.083 c 6.090545,-2.585287 14.951128,4.561429 19.790652,15.962637 4.839525,11.401209 3.825366,22.739503 -2.265187,25.324789 M 49.598193,22.952033 c 6.703446,-2.984572 16.248935,3.83008 21.320455,15.220951 5.071518,11.390871 3.748584,23.044469 -2.954859,26.029042 M 43.493618,25.981865 c 7.002526,-3.723307 17.445065,2.221641 23.324051,13.278413 5.878991,11.056772 4.968187,23.038393 -2.034341,26.761699 M 37.746293,29.755105 c 7.022336,-4.560359 18.222336,0.223194 25.015901,10.684366 6.793566,10.461171 6.608115,22.638529 -0.41422,27.198888 M 32.315348,34.031885 c 6.951706,-5.833168 19.031456,-2.881892 26.980875,6.59186 7.949416,9.473751 8.758216,21.882462 1.806511,27.715629 M 26.757043,39.721137 c 6.052805,-7.294908 18.555526,-6.764925 27.925615,1.183752 9.37008,7.948677 12.059271,20.306044 6.006465,27.600952 M 22.706409,44.804505 c 5.521275,-8.185636 18.244844,-9.258276 28.418875,-2.395809 10.17403,6.862467 13.945824,19.061366 8.424539,27.247 M 19.632958,49.654868 c 4.959175,-8.946585 17.686985,-11.372524 28.428355,-5.418486 10.74137,5.954037 15.42876,18.033379 10.46959,26.979964 M 16.526584,56.005348 c 3.552774,-9.761191 15.788334,-14.269089 27.328874,-10.068671 11.54054,4.200417 18.015886,15.518537 14.463105,25.279728 M 103.55696,10.49229 c 5.17044,-0.180555 9.71233,9.707681 10.14459,22.085995 0.43226,12.378313 -3.4088,22.559288 -8.57925,22.739843 M 94.714275,11.095252 c 5.145271,-0.54079 10.365875,9.006505 11.660545,21.324479 1.29468,12.317975 -1.82684,22.742063 -6.972118,23.282853 M 86.173315,12.100035 c 5.123255,-0.720027 10.67387,8.639247 12.39765,20.904523 1.723775,12.265277 -1.03204,22.791946 -6.155295,23.511973 M 77.029776,13.707718 c 5.060547,-1.075653 11.250509,7.873634 13.825674,19.988794 2.57516,12.11516 0.56035,22.808428 -4.500195,23.884082 M 68.790538,15.71733 c 4.997321,-1.339027 11.647168,7.274059 14.852847,19.237867 3.20569,11.963808 1.75328,22.747887 -3.244041,24.086914 M 61.153594,18.129022 c 5.363844,-1.846928 12.981029,6.149476 17.013454,17.860468 4.032423,11.710992 2.953095,22.701857 -2.410759,24.548786 M 94.15122,130.5641 c -2.03088,-0.19613 -2.72079,-10.25911 -1.54095,-22.47629 1.17984,-12.217187 3.782645,-21.962179 5.813535,-21.766051 m 3.056665,45.050341 c -1.17825,-0.0653 -1.578694,-10.12671 -0.89441,-22.47277 0.68427,-12.346069 2.19415,-22.301593 3.37241,-22.236289 m 16.3704,-0.177727 c 1.67429,-0.204484 3.86915,9.599864 4.90237,21.898626 1.03322,12.29876 0.51353,22.43464 -1.16075,22.63913 m 1.54188,-45.018774 c 2.55391,-0.482334 5.901,9.040206 7.47593,21.269194 1.57493,12.22898 0.78131,22.53354 -1.77261,23.01587 m -0.6258,-45.130724 c 3.38154,-0.906081 7.93127,8.154166 10.16211,20.236624 2.23084,12.08247 1.29801,22.61176 -2.08353,23.51784 m -3.24654,-44.782582 c 4.09202,-1.44099 9.77681,7.054917 12.69731,18.976142 2.92051,11.92122 1.9708,22.75343 -2.12123,24.19442 m -6.21836,-44.188606 c 4.70817,-2.125825 11.53952,5.65396 15.25825,17.376636 3.71873,11.72268 2.91663,22.94911 -1.79153,25.07494 m -9.28366,-43.719634 c 5.2069,-2.886236 13.056,4.0841 17.53146,15.568681 4.47546,11.484583 3.88251,23.134433 -1.3244,26.020663 M 147.5804,80.606285 c 5.52378,-3.821049 14.39103,2.085006 19.80556,13.191543 5.41453,11.106542 5.32596,23.207742 -0.19782,27.028782 M 162.3527,71.607726 c 2.39786,-8.301663 14.01976,-12.236071 25.95825,-8.787747 11.93849,3.448311 19.67271,12.973558 17.27485,21.275221 M 162.33398,71.597787 c 1.16123,-8.562642 12.08491,-14.150267 24.39871,-12.480309 12.31379,1.669958 21.35473,9.965119 20.19349,18.527761 m -44.60229,-7.437293 c 0.52016,-8.625355 10.99725,-15.011192 23.40125,-14.263167 12.404,0.748025 22.03776,8.346651 21.51761,16.972005 m -45.11328,-3.820887 c -0.09,-8.640557 9.91021,-15.750025 22.33607,-15.879442 12.42587,-0.129416 22.57198,6.770227 22.66197,15.410783 m -45.56162,-1.289009 c -0.60176,-8.620034 8.95967,-16.309494 21.35606,-17.174888 12.3964,-0.865394 22.93349,5.420983 23.53526,14.041018 m -45.39685,2.641953 c -1.57939,-8.495455 7.04425,-17.223627 19.26143,-19.494919 12.21717,-2.271291 23.4015,2.77439 24.98089,11.269845 m -43.8194,13.228668 c 6.42152,-5.781974 18.3678,-2.982972 26.68277,6.251747 8.31497,9.234718 9.84991,21.408152 3.42839,27.190127 M 161.93642,71.003637 c 5.70318,-6.491595 17.89442,-5.105301 27.22991,3.096374 9.33548,8.201676 12.28005,20.112925 6.57687,26.604519 M 161.54891,72.091859 c 4.35961,-7.460627 16.59138,-8.426224 27.32042,-2.156722 10.72904,6.269503 15.89248,17.399972 11.53286,24.860599 m -38.3103,-23.084111 c 3.52911,-7.887495 15.58526,-10.167339 26.92816,-5.092173 11.34289,5.075166 17.67722,15.58348 14.1481,23.470975 M 160.00741,73.150152 c 6.88263,-5.496227 18.73649,-2.094735 26.47633,7.597446 7.73984,9.69218 8.43474,22.004812 1.55211,27.501042 M 157.67709,75.069689 c 6.90685,-4.836231 18.27323,-0.520265 25.38752,9.639979 7.11428,10.160243 7.28244,22.317292 0.37558,27.153512 M 155.32618,76.543795 c 6.84847,-3.953973 17.42772,1.548514 23.62941,12.290149 6.20169,10.741635 5.67737,22.654776 -1.17111,26.608756 M 152.14194,78.491982 c 6.58313,-3.354276 16.47301,2.86269 22.08966,13.885984 5.61665,11.023294 4.83316,22.678614 -1.74996,26.032894 M 114.94003,86.569173 c 0.7795,-0.03896 1.74481,9.949209 2.1561,22.309207 0.41129,12.36 0.1128,22.41134 -0.6667,22.45031 m -7.04521,-44.515468 c 0.17957,7.27e-4 0.28452,10.025083 0.23441,22.390028 -0.0501,12.36494 -0.23631,22.38812 -0.41589,22.38739" id="path4300" style="fill:none;stroke:url(#radialGradient4303);stroke-width:0.28222224;stroke-linecap:round;stroke-miterlimit:4;stroke-opacity:1;stroke-dasharray:none"/><g transform="translate(259.64433,2.4285706e-7)" id="g4455"><path d="m -148.97512,55.666848 c 22.12636,0 41.33317,6.101295 50.939612,15.04066 -9.200282,9.43946 -28.854672,15.776093 -51.612342,15.776093 -22.2248,0 -41.49109,-6.035263 -50.94969,-15.119093 9.35748,-9.296275 28.95889,-15.69766 51.62242,-15.69766 z m -0.0385,-45.8256795 c 53.636026,0 97.132257,24.8226695 97.132257,60.8747195 0,36.052052 -43.496551,61.243872 -97.132257,61.243872 -53.63349,0 -97.12958,-25.19182 -97.12958,-61.243872 0,-36.05205 43.49641,-60.8747194 97.12958,-60.8747195 z" id="path4044" style="fill:url(#linearGradient4463);fill-opacity:1;stroke-width:0.70555556;stroke-miterlimit:4;stroke-dasharray:none"/><path d="m -148.97512,55.666848 c 22.12636,0 41.33317,6.101295 50.939612,15.04066 -9.200282,9.43946 -29.087952,15.776093 -51.845622,15.776093 -22.2248,0 -41.25781,-6.035263 -50.71641,-15.119093 9.35748,-9.296275 28.95889,-15.69766 51.62242,-15.69766 z m -0.0385,-45.8256796 c 53.636026,0 97.132257,24.8226696 97.132257,60.8747196 0,36.052052 -43.496551,61.243872 -97.132257,61.243872 -53.63349,0 -97.12958,-25.19182 -97.12958,-61.243872 0,-36.05205 43.49641,-60.8747196 97.12958,-60.8747196 z" id="path3923" style="fill:url(#radialGradient4465);fill-opacity:1;stroke-width:0.70555556;stroke-miterlimit:4;stroke-dasharray:none"/><path d="m -126.44166,7.71875 c -9.29759,0 -26.0639,0.3291801 -34.60585,1.7366759 l -5.88269,3.9266301 c 8.30493,-1.36844 31.41467,-2.728014 40.48854,-2.728014 26.491485,0 49.392946,6.406246 66.542021,16.856692 31.801876,21.684477 33.179327,51.689414 20.770535,74.333016 7.575556,-8.907188 11.937511,-19.475045 11.937511,-31.125 0,-18.877266 -11.460721,-34.807348 -29.468776,-45.78125 C -74.668423,13.963598 -99.297115,7.7187499 -126.44166,7.71875 z" transform="translate(-22.577839,2.4285598e-7)" clip-path="url(#clipPath4330)" id="path4326" style="font-size:medium;font-style:normal;font-variant:normal;font-weight:normal;font-stretch:normal;text-indent:0;text-align:start;text-decoration:none;line-height:normal;letter-spacing:normal;word-spacing:normal;text-transform:none;direction:ltr;block-progression:tb;writing-mode:lr-tb;text-anchor:start;baseline-shift:baseline;color:#000000;fill:#00007f;fill-opacity:1;stroke:none;stroke-width:4.23333359;marker:none;visibility:visible;display:inline;overflow:visible;filter:url(#filter4316);enable-background:accumulate;font-family:Sans;-inkscape-font-specification:Sans"/><path d="m -177.26308,70.65365 100.397677,0.03993 C -94.05894,50.034469 -156.46862,45.544458 -177.26308,70.65365 z" transform="translate(-22.577839,2.4285598e-7)" clip-path="url(#clipPath4358)" id="path4259" style="font-size:medium;font-style:normal;font-variant:normal;font-weight:normal;font-stretch:normal;text-indent:0;text-align:start;text-decoration:none;line-height:normal;letter-spacing:normal;word-spacing:normal;text-transform:none;direction:ltr;block-progression:tb;writing-mode:lr-tb;text-anchor:start;baseline-shift:baseline;color:#000000;fill:#00007f;fill-opacity:1;stroke:none;stroke-width:4.23333359;marker:none;visibility:visible;display:inline;overflow:visible;filter:url(#filter3846);enable-background:accumulate;font-family:Sans;-inkscape-font-specification:Sans"/><path d="m -150.26841,32.908809 c 10.64805,-0.68166 22.49264,2.605996 28.77779,5.86987 -2.57697,-7.643463 -20.71335,-11.273066 -28.77779,-5.86987 z" id="path3996" style="font-size:medium;font-style:normal;font-variant:normal;font-weight:normal;font-stretch:normal;text-indent:0;text-align:start;text-decoration:none;line-height:normal;letter-spacing:normal;word-spacing:normal;text-transform:none;direction:ltr;block-progression:tb;writing-mode:lr-tb;text-anchor:start;baseline-shift:baseline;color:#000000;fill:#e6e6e6;fill-opacity:1;stroke:none;stroke-width:19.99995995;marker:none;visibility:visible;display:inline;overflow:visible;filter:url(#filter4014);enable-background:accumulate;font-family:Sans;-inkscape-font-specification:Sans"/><path d="m -166.97002,2.4871157 -0.45864,8.8310593 c 90.67193,-16.7507176 157.8686272,52.696558 105.404044,107.176855 37.756004,-11.76913 39.96092,-35.897005 39.96092,-47.54696 l 0,-68.4609543 z" transform="translate(-22.577839,2.4285598e-7)" clip-path="url(#clipPath4330)" id="path3058" style="font-size:medium;font-style:normal;font-variant:normal;font-weight:normal;font-stretch:normal;text-indent:0;text-align:start;text-decoration:none;line-height:normal;letter-spacing:normal;word-spacing:normal;text-transform:none;direction:ltr;block-progression:tb;writing-mode:lr-tb;text-anchor:start;baseline-shift:baseline;color:#000000;fill:#00007f;fill-opacity:1;stroke:none;stroke-width:4.23333359;marker:none;visibility:visible;display:inline;overflow:visible;filter:url(#filter3840);enable-background:accumulate;font-family:Sans;-inkscape-font-specification:Sans"/></g><path d="m 144.38564,80.833004 10.57669,-8.601443 18.10295,-4.976201 c -6.8248,6.750857 -17.80603,11.863124 -28.67964,13.577644 z" clip-path="url(#clipPath3079)" id="path3062" style="fill:#00007f;fill-opacity:1;stroke:none;filter:url(#filter3859)"/></svg>